<?xml version="1.0" encoding="utf-8" ?>
<svg baseProfile="full" height="200mm" version="1.1" viewBox="0,0,200,200" width="200mm" xmlns="http://www.w3.org/2000/svg" xmlns:ev="http://www.w3.org/2001/xml-events" xmlns:xlink="http://www.w3.org/1999/xlink"><defs /><rect fill="#1a1a1a" height="200" width="200" x="0" y="0" /><text alignment-baseline="middle" fill="#e1ed5e" style="dominant-baseline: central; font-size:9.0px; font-family:Arial;" text-anchor="middle" x="100.0" y="100.0">2023</text><line stroke="#e1ed5e" stroke-width="0.3" x1="100.0" x2="100.0" y1="15.0" y2="10.0" /><path d="M 100.0 14.0 a86.0,86.0 0 0,1 42.46469731375804,11.215312516191453" fill="none" id="id49" stroke="none" /><text fill="#e1ed5e" style="font-size:6.75px; font-family:Arial;" text-anchor="middle"><textPath startOffset="22.20632615414155" xlink:href="#id49">January</textPath></text><path d="M 106.0581310904928 79.89281104454417 l 4.265808738125248 -14.158396552350245 a35.787065872710144,35.787065872710144 0 0,0 0.5882961241440289,0.18278646945034482 l -4.5088902349799955 14.08286994801738" fill="#ffa00e" stroke="none" /><path d="M 106.40334571778207 80.00007090966166 l 4.508711919301951 -14.08231300465156 a35.78648108010266,35.78648108010266 0 0,0 0.5850530326807605,0.192882786444006 l -4.750447774225129 14.002616493948318" fill="#ffa00e" stroke="none" /><path d="M 107.08798089147638 80.2323363322302 l 6.529261367011002 -18.209451277901547 a40.344647059096545,40.344647059096545 0 0,0 0.6516960639482378,0.24002516024146164 l -6.841739756731816 18.09436284985376" fill="#ffdd14" stroke="none" /><path d="M 108.09893153111575 80.62456947434976 l 11.287368269993607 -27.003268133884475 a50.26740802279763,50.26740802279763 0 0,0 0.7954607685598604,0.34057478769384014 l -11.750512796343783 26.804973818227843" fill="#a6ff21" stroke="none" /><path d="M 108.76106565485865 80.91482961587045 l 5.473505867885711 -11.923525767575942 a34.11982214878795,34.11982214878795 0 0,0 0.531654725412666,0.24961902229281185 l -5.677938804597975 11.827541762643127" fill="#ff890c" stroke="none" /><path d="M 109.41281617654863 81.2277094730956 l 16.072223836738587 -32.053367410742645 a56.85714352017303,56.85714352017303 0 0,0 0.8711042682512675,0.44621344007164004 l -16.62158859257861 31.771961445358507" fill="#5cff2a" stroke="none" /><line stroke="#e1ed5e" stroke-width="0.3" x1="143.23703022742887" x2="145.7803849466894" y1="26.81831364943548" y2="22.513508569990506" /><path d="M 143.74570117128098 25.957352633546492 a86.0,86.0 0 0,1 28.547481713284135,27.462654790039103" fill="none" id="id50" stroke="none" /><text fill="#e1ed5e" style="font-size:6.75px; font-family:Arial;" text-anchor="middle"><textPath startOffset="19.985693538727396" xlink:href="#id50">February</textPath></text><path d="M 110.68208982089419 81.91981866633111 l 7.471032629478229 -12.645243295606003 a35.687358733135,35.687358733135 0 0,0 0.5261980962037082,0.31702846529205025 l -7.687592791899575 12.514768220855338" fill="#ff9f0e" stroke="none" /><path d="M 110.99172775467656 82.1063720568725 l 12.246031829679609 -19.935531722640615 a44.39638264001374,44.39638264001374 0 0,0 0.6477238735644165,0.4056046302037353 l -12.587374855616288 19.721782751113935" fill="#edff1a" stroke="none" /><path d="M 111.60114157652 82.49532879139004 l 21.418722254676865 -32.31817216466748 a59.77145747954387,59.77145747954387 0 0,0 0.8527260985404922,0.5757644682218229 l -21.9718530476239 31.94469578414699" fill="#3eff2e" stroke="none" /><path d="M 112.48926042617603 83.11751280151076 l 8.72174811230142 -11.789713388133743 a35.6651366140508,35.6651366140508 0 0,0 0.49040216066856623,0.3693607403125545 l -8.92339642672837 11.637836058315342" fill="#ff9f0e" stroke="none" /><path d="M 112.77801427241765 83.33499621200491 l 8.913966858178544 -11.625538075839206 a35.649639609952615,35.649639609952615 0 0,0 0.4837612718635886,0.3775833459836769 l -9.112760685201563 11.470376340632304" fill="#ff9e0e" stroke="none" /><path d="M 113.89432698308785 84.25364557470407 l 41.68298094926353 -47.23906327588782 a84.0,84.0 0 0,0 1.0759560496160399,0.9660039649228103 l -42.48994798647556 46.51456030219571" fill="#4dd2ff" stroke="none" /><path d="M 115.4437574822437 85.77008943001954 l 17.321570907967242 -15.960131803114765 a44.55339945512181,44.55339945512181 0 0,0 0.5148174147599696,0.5684742476983944 l -17.593731963343245 15.659604768146822" fill="#ebff1a" stroke="none" /><path d="M 115.68641384162765 86.03803664274999 l 17.489549497804845 -15.566875366704217 a44.413926418238105,44.413926418238105 0 0,0 0.5033750408569251,0.5754446888737866 l -17.75491640223962 15.263515121627483" fill="#edff1a" stroke="none" /><path d="M 116.15771136456269 86.58626213691792 l 18.184427602483574 -15.09626824903431 a44.634100834953884,44.634100834953884 0 0,0 0.4856647307428848,0.5953675342466127 l -18.441590825302868 14.781016545179597" fill="#eaff1a" stroke="none" /><path d="M 116.60985879189232 87.15038557335679 l 19.514990247573227 -15.097063940328056 a45.67298490214007,45.67298490214007 0 0,0 0.4757038418989927,0.6259704945615054 l -19.771970029696334 14.758908669885518" fill="#ddff1b" stroke="none" /><path d="M 116.82858285166822 87.43820079747576 l 15.317875811800363 -11.434122638435042 a40.11482356435736,40.11482356435736 0 0,0 0.4082875041963124,0.5569036968810441 l -15.512425928510302 11.168756497882505" fill="#ffda14" stroke="none" /><path d="M 117.04232023915458 87.72973835380427 l 35.60836522240241 -25.6375864284222 a64.87757413174543,64.87757413174543 0 0,0 0.644720522811111,0.9119114574500393 l -36.04439836501741 25.02084847064037" fill="#34ff5d" stroke="none" /><path d="M 117.2510076193507 88.02491185347247 l 17.659261957031624 -12.258485023266914 a42.496976250922444,42.496976250922444 0 0,0 0.4119687927497469,0.604513369081245 l -17.867655215450103 11.952693630915263" fill="#fff917" stroke="none" /><path d="M 117.65298651832404 88.62581576622439 l 19.674803683902418 -12.676882839726948 a44.40515452912592,44.40515452912592 0 0,0 0.4084690685457639,0.6460999723804094 l -19.890100348694137 12.336335219632332" fill="#edff1a" stroke="none" /><line stroke="#e1ed5e" stroke-width="0.3" x1="172.23445277983987" x2="176.4835382374775" y1="55.19839476539836" y2="52.563006222186495" /><path d="M 173.08426987136738 54.67131705675599 a86.0,86.0 0 0,1 12.851231095245387,41.99856678651699" fill="none" id="id51" stroke="none" /><text fill="#e1ed5e" style="font-size:6.75px; font-family:Arial;" text-anchor="middle"><textPath startOffset="22.20632615414155" xlink:href="#id51">March</textPath></text><path d="M 118.03404312379186 89.2402003453031 l 20.12411088939309 -12.006813996862935 a44.43380936689238,44.43380936689238 0 0,0 0.3862362869693312,0.660203014762512 l -20.327806850832747 11.658631569746527" fill="#ecff1a" stroke="none" /><path d="M 118.21658344932153 89.55222093294921 l 25.399105640206248 -14.567179678220175 a50.27998106385842,50.27998106385842 0 0,0 0.42412925911541355,0.754478626351814 l -25.646092540614095 14.127817541933567" fill="#a6ff21" stroke="none" /><path d="M 118.3937258080291 89.86733742301442 l 25.61817682343453 -14.112439442589952 a50.24810986675082,50.24810986675082 0 0,0 0.41081873779532674,0.7611847285815881 l -25.857303660448324 13.669373730675906" fill="#a6ff21" stroke="none" /><path d="M 118.89224826269711 90.83032412892265 l 21.060471351979977 -10.222060037771087 a44.4101252662895,44.4101252662895 0 0,0 0.3278774301428277,0.6905934870505002 l -21.23330697596456 9.858024135080047" fill="#edff1a" stroke="none" /><path d="M 119.34039704204932 91.81776055985345 l 21.57405621932204 -9.127221809246324 a44.42532987408394,44.42532987408394 0 0,0 0.2918920035976344,0.7068396393777144 l -21.72796990980587 8.754507599415305" fill="#ecff1a" stroke="none" /><path d="M 119.47837535516314 92.15188598940014 l 48.90264542653467 -19.703570227465164 a73.72285471616672,73.72285471616672 0 0,0 0.46412556736245436,1.1811489443418004 l -49.23456454377882 18.85887227822758" fill="#40ffc3" stroke="none" /><path d="M 119.85752413597 93.16781622104841 l 22.153119214331007 -7.622006686884464 a44.42766904451386,44.42766904451386 0 0,0 0.24258079828838658,0.7252857106154785 l -22.281037306391163 7.2395478733466705" fill="#ecff1a" stroke="none" /><path d="M 119.97218684219823 93.5106431181261 l 22.265464523430488 -7.234487969437587 a44.41129485150445,44.41129485150445 0 0,0 0.22997546542163844,0.7290850718496851 l -22.38669547262033 6.850152731161483" fill="#edff1a" stroke="none" /><path d="M 120.08093135843002 93.85539295169968 l 22.373833894295426 -6.846217189357327 a44.39784462153244,44.39784462153244 0 0,0 0.21732555276402196,0.732713725600799 l -22.48836534417115 6.460074077009999" fill="#edff1a" stroke="none" /><path d="M 120.28053869075195 94.5502522615342 l 42.4426613731689 -11.405111144230695 a64.94833403725036,64.94833403725036 0 0,0 0.2808355699759622,1.082174011156246 l -42.632693275015164 10.672840707525598" fill="#34ff5e" stroke="none" /><path d="M 120.37134235888165 94.90015583598534 l 17.04666697582989 -4.267531494049265 a38.57272545843563,38.57272545843563 0 0,0 0.15570009159141848,0.6454773991067373 l -17.117599867682127 3.9734688632831214" fill="#ffc612" stroke="none" /><path d="M 120.6074358757038 95.95851677861258 l 22.975950558295683 -4.505990907207316 a44.41363402193437,44.41363402193437 0 0,0 0.14067336740482903,0.7514827536927547 l -23.05010964961037 4.109830076051999" fill="#edff1a" stroke="none" /><path d="M 120.73433829027371 96.67025291283417 l 20.930844937828216 -3.361304276411183 a42.19902441741198,42.19902441741198 0 0,0 0.10900230367884196,0.7181889896652971 l -20.98560313494636 3.0005161743538036" fill="#fff517" stroke="none" /><path d="M 120.78858239683441 97.02765380044208 l 14.468577789319163 -2.0687135555543956 a35.615721638718846,35.615721638718846 0 0,0 0.08154982823009528,0.6076409427277903 l -14.502043616607095 1.8193542707619408" fill="#ff9e0e" stroke="none" /><path d="M 120.83666639777658 97.38593545837742 l 23.2225338944444 -2.9133836123888432 a44.40456973651844,44.40456973651844 0 0,0 0.08861808774690508,0.7592256576613186 l -23.269242335194892 2.513214216402672" fill="#edff1a" stroke="none" /><path d="M 120.91429891909075 98.10471618934814 l 23.29653386681831 -2.1111653636058474 a44.39199669545765,44.39199669545765 0 0,0 0.06241412460555574,0.7616104093681957 l -23.329422475243362 1.7098410370298829" fill="#edff1a" stroke="none" /><path d="M 120.96714384426684 98.82574320788733 l 23.387219404405677 -1.3097921890664093 a44.42386789256524,44.42386789256524 0 0,0 0.03618724228350564,0.7638554903263064 l -23.406300254922677 0.907025592117103" fill="#edff1a" stroke="none" /><line stroke="#e1ed5e" stroke-width="0.3" x1="184.98032266829074" x2="189.97916517819016" y1="98.17113171792111" y2="98.06355123074" /><path d="M 185.9800911702706 98.14961562048488 a86.0,86.0 0 0,1 -9.607161424134198,41.387399972396054" fill="none" id="id52" stroke="none" /><text fill="#e1ed5e" style="font-size:6.75px; font-family:Arial;" text-anchor="middle"><textPath startOffset="21.466115282336823" xlink:href="#id52">April</textPath></text><path d="M 120.99513854157772 99.54816195383933 l 43.86040067345695 -0.9439231708270296 a64.87055662045567,64.87055662045567 0 0,0 0.014416686953214141,1.1165882922728825 l -43.870150367527884 0.1887986204936844" fill="#34ff5d" stroke="none" /><path d="M 120.95626037817324 101.35467743843564 l 29.207324081867032 1.8880516970476897 a50.26828521170884,50.26828521170884 0 0,0 -0.06325052787313955,0.8630032000506275 l -29.170496995329554 -2.3905280335950874" fill="#a6ff21" stroke="none" /><path d="M 120.8583938346157 102.4346265915055 l 23.247039619585173 2.7134333199566294 a44.40486213282218,44.40486213282218 0 0,0 -0.09515008467041823,0.7584397938266323 l -23.196888025667906 -3.1131908680706566" fill="#edff1a" stroke="none" /><path d="M 120.81339534386255 102.79330883721812 l 20.53683136769295 2.756191942740898 a41.720956460798014,41.720956460798014 0 0,0 -0.10165201570532323,0.7109539610859412 l -20.486345300971028 -3.1092913758072487" fill="#ffef16" stroke="none" /><path d="M 120.76222939487914 103.15116336523771 l 14.472206960421236 2.1965024815237553 a35.637943757803036,35.637943757803036 0 0,0 -0.09727163877944486,0.6057105875326333 l -14.432253567280503 -2.4452922987495938" fill="#ff9e0e" stroke="none" /><path d="M 120.49622156327973 104.57218783832717 l 22.850526924665836 5.09737372723866 a44.41217204041567,44.41217204041567 0 0,0 -0.1728678956370715,0.7447103700313379 l -22.75939846309821 -5.489952754618563" fill="#edff1a" stroke="none" /><path d="M 120.41448212921028 104.9243191809786 l 22.75570329412081 5.489061417216164 a44.408370888467054,44.408370888467054 0 0,0 -0.18564535783790492,0.741560922300025 l -22.657846621987844 -5.879950178913584" fill="#edff1a" stroke="none" /><path d="M 120.02730092923936 106.31721596034902 l 3.5631810574603353 1.123934988810129 a24.736239969182357,24.736239969182357 0 0,0 -0.13158236596568101,0.4049688815151487 l -3.5433064404784074 -1.185102770303073" fill="#ff0000" stroke="none" /><path d="M 119.9155931802556 106.66101706037122 l 22.20625473939204 7.427157219333264 a44.41538839975681,44.41538839975681 0 0,0 -0.2487455677632888,0.722971055139415 l -22.07511834068552 -7.808300977561979" fill="#edff1a" stroke="none" /><path d="M 119.79798401119884 107.00284435728193 l 13.841709234910176 4.896020491581268 a35.68209559966769,35.68209559966769 0 0,0 -0.20980348205005311,0.5772890755916634 l -13.755381491854896 -5.1335573641790635" fill="#ff9f0e" stroke="none" /><path d="M 119.67450827220406 107.3425965602758 l 21.930044210641704 8.184370605858856 a44.407493699555836,44.407493699555836 0 0,0 -0.27343537925085126,0.7138534918559856 l -21.785914551797344 -8.560647664547984" fill="#edff1a" stroke="none" /><path d="M 119.41010516605496 108.01547362559984 l 21.65559869559899 8.942758357368932 a44.42942342233629,44.42942342233629 0 0,0 -0.29799241405845306,0.7043660412981037 l -21.498455300348226 -9.3141989243332" fill="#ecff1a" stroke="none" /><path d="M 119.12269723197855 108.67885076344098 l 21.32908378540114 9.680220988118037 a44.42299070365402,44.42299070365402 0 0,0 -0.32201460861830206,0.6935908191993911 l -21.159294559943007 -10.045931874596258" fill="#edff1a" stroke="none" /><path d="M 118.81262510543309 109.33194174019688 l 20.96751897301046 10.400869862446653 a44.40544692542966,44.40544692542966 0 0,0 -0.3455617716804259,0.681826158979254 l -20.785378531543767 -10.7602502331286" fill="#edff1a" stroke="none" /><path d="M 118.64920377521936 109.65438752849418 l 20.79628444804688 10.765896047585 a44.41772757018671,44.41772757018671 0 0,0 -0.3573458887301457,0.6759637521631578 l -20.607886051091842 -11.122274814834292" fill="#edff1a" stroke="none" /><line stroke="#e1ed5e" stroke-width="0.3" x1="174.80103733775053" x2="179.2010983576182" y1="140.37084112569926" y2="142.7455964860345" /><path d="M 175.68104954172406 140.8457921977663 a86.0,86.0 0 0,1 -30.038265399797805,32.042727171017184" fill="none" id="id53" stroke="none" /><text fill="#e1ed5e" style="font-size:6.75px; font-family:Arial;" text-anchor="middle"><textPath startOffset="22.206326154141568" xlink:href="#id53">May</textPath></text><path d="M 118.48025628344425 109.97397251340804 l 20.637734279711587 11.138384191634113 a44.45164554142049,44.45164554142049 0 0,0 -0.36921026767254084,0.6702238801973567 l -20.442947602587537 -11.491978590229275" fill="#ecff1a" stroke="none" /><path d="M 117.94076556474637 110.91462005526583 l 20.009281436107912 12.17304265338295 a44.42123632583159,44.42123632583159 0 0,0 -0.40303886998747135,0.6498269887897925 l -19.796777926452478 -12.515665973538017" fill="#edff1a" stroke="none" /><path d="M 117.55443506779139 111.5257021239791 l 19.58598527137986 12.859555500977342 a44.43030061124751,44.43030061124751 0 0,0 -0.4252548785013758,0.6356983440199548 l -19.361727287467765 -13.194790759203105" fill="#ecff1a" stroke="none" /><path d="M 117.35343817320211 111.8261652097733 l 24.22318030279063 16.50781414655356 a50.31331424248472,50.31331424248472 0 0,0 -0.49388290264819873,0.711475156792196 l -23.935436492980294 -16.922330565532775" fill="#a5ff21" stroke="none" /><path d="M 116.498646956653 112.99209946851258 l 18.393769570630496 14.484441329667112 a44.41217204041567,44.41217204041567 0 0,0 -0.4781331707179149,0.5965446468064527 l -18.14171848785773 -14.798913810051815" fill="#edff1a" stroke="none" /><path d="M 115.32070863581623 114.36230785411682 l 10.77884285312644 10.104562592218578 a35.77449283164935,35.77449283164935 0 0,0 -0.42502388520174805,0.44563584441093246 l -10.603312416545728 -10.288605553212017" fill="#ffa00e" stroke="none" /><path d="M 114.81725581225074 114.88116024355365 l 10.333863572245008 10.378431856893249 a35.645838458004,35.645838458004 0 0,0 -0.4385287649157181,0.42919269454023506 l -10.153684854953495 -10.554774654356057" fill="#ff9e0e" stroke="none" /><path d="M 114.0293411484842 115.62618273729858 l 19.541363353164552 21.765591944814254 a50.25074143348448,50.25074143348448 0 0,0 -0.6486117970314165,0.572324498079709 l -19.16380920322655 -22.09873958466625" fill="#a6ff21" stroke="none" /><path d="M 112.63410532772338 116.77436683061366 l 14.07776182782571 18.691117014497095 a44.39959899935487,44.39959899935487 0 0,0 -0.6144376560286381,0.45454628880023823 l -13.753939201378508 -18.930673252037103" fill="#edff1a" stroke="none" /><path d="M 112.34349029814194 116.9893568818739 l 12.935340323297783 17.803968556128808 a43.00691540464399,43.00691540464399 0 0,0 -0.6026552341476932,0.42997850807548793 l -12.626957761301206 -18.023991326048517" fill="#feff18" stroke="none" /><path d="M 112.04921762599082 117.19931262002967 l 13.418659154737387 19.154082937810095 a44.38673356199034,44.38673356199034 0 0,0 -0.6295372859770109,0.43300148572243924 l -13.086964984137493 -19.38222521289763" fill="#edff1a" stroke="none" /><line stroke="#e1ed5e" stroke-width="0.3" x1="143.8653032363475" x2="146.44561519142675" y1="172.8068346515853" y2="177.08958963109032" /><path d="M 144.38136562736335 173.6633856474863 a86.0,86.0 0 0,1 -40.68145358897372,12.25698825130547" fill="none" id="id54" stroke="none" /><text fill="#e1ed5e" style="font-size:6.75px; font-family:Arial;" text-anchor="middle"><textPath startOffset="21.466115282336833" xlink:href="#id54">June</textPath></text><path d="M 110.21172684928248 118.3499491758327 l 11.376737954225904 20.44341435371242 a44.39579784740626,44.39579784740626 0 0,0 -0.6709625469360808,0.36586227809891003 l -11.023152595421173 -20.636217283571103" fill="#edff1a" stroke="none" /><path d="M 107.93186726928326 119.44442032107085 l 8.842190779500132 21.676015021269215 a44.4101252662895,44.4101252662895 0 0,0 -0.7103059565374878,0.282645399150541 l -8.46776374692078 -21.825007264825828" fill="#edff1a" stroke="none" /><path d="M 105.53697534728816 120.25689768951611 l 6.170437747957667 22.574405396463415 a44.40252296239227,44.40252296239227 0 0,0 -0.739005054220859,0.1951779515321457 l -5.78094225092531 -22.677274697299143" fill="#edff1a" stroke="none" /><path d="M 103.06178313531738 120.77559828337769 l 3.4142858734216412 23.16749050989417 a44.41772757018671,44.41772757018671 0 0,0 -0.7573675374922056,0.10496423954770104 l -3.014989744742605 -23.222829314934472" fill="#edff1a" stroke="none" /><line stroke="#e1ed5e" stroke-width="0.3" x1="102.19456741930631" x2="102.32365962044197" y1="184.97166512339345" y2="189.96999836594603" /><path d="M 102.22038585953345 185.97133177190398 a86.0,86.0 0 0,1 -42.740103519485714,-10.115201625700543" fill="none" id="id55" stroke="none" /><text fill="#e1ed5e" style="font-size:6.75px; font-family:Arial;" text-anchor="middle"><textPath startOffset="22.20632615414155" xlink:href="#id55">July</textPath></text><path d="M 98.73552117531835 120.96189622390904 l -1.4089665447964819 23.357141233598213 a44.39959899935487,44.39959899935487 0 0,0 -0.7624832764595201,-0.05258531094890688 l 1.8108125820349321 -23.329427578133018" fill="#edff1a" stroke="none" /><path d="M 95.16358092515715 120.4354850818985 l -5.394514913337141 22.793626302774875 a44.42328309995777,44.42328309995777 0 0,0 -0.7426022672934582,-0.18251356987733217 l 5.786070465373809 -22.69739147458351" fill="#edff1a" stroke="none" /><path d="M 92.7421414339146 119.70592522655815 l -8.09214125810965 21.97109920275879 a44.413926418238105,44.413926418238105 0 0,0 -0.7151271969032327,-0.27039991486699877 l 8.469138675773166 -21.828551037785157" fill="#edff1a" stroke="none" /><path d="M 91.07499286063937 119.00905698771935 l -9.972300874674472 21.239650866985244 a44.46421858248129,44.46421858248129 0 0,0 -0.6900155030142326,-0.3312493736198994 l 10.336429045688947 -21.06484721686578" fill="#ecff1a" stroke="none" /><line stroke="#e1ed5e" stroke-width="0.3" x1="58.666819895761336" x2="56.23545636021788" y1="174.27360380694188" y2="178.64263932499728" /><path d="M 58.180547188652646 175.14741091055294 a86.0,86.0 0 0,1 -31.652253787137756,-30.449443065178592" fill="none" id="id56" stroke="none" /><text fill="#e1ed5e" style="font-size:6.75px; font-family:Arial;" text-anchor="middle"><textPath startOffset="22.20632615414155" xlink:href="#id56">August</textPath></text><path d="M 88.54995079064634 117.60387380957326 l -12.792046567037005 19.667127137614777 a44.46129461944389,44.46129461944389 0 0,0 -0.6379672855054879,-0.4228099295402315 l 13.128688551282455 -19.44401918698323" fill="#ecff1a" stroke="none" /><path d="M 86.24171649860922 115.8653595955263 l -15.33978274013443 17.689064865168596 a44.413926418238105,44.413926418238105 0 0,0 -0.5732730663384555,-0.5058468277271873 l 15.641998159379472 -17.42239489566912" fill="#edff1a" stroke="none" /><line stroke="#e1ed5e" stroke-width="0.3" x1="26.63291911575756" x2="22.317208475507996" y1="142.92168965132927" y2="145.44649492493687" /><path d="M 25.769776987707644 143.4266507060508 a86.0,86.0 0 0,1 -11.730757126820373,-40.83630448921669" fill="none" id="id57" stroke="none" /><text fill="#e1ed5e" style="font-size:6.75px; font-family:Arial;" text-anchor="middle"><textPath startOffset="21.46611528233685" xlink:href="#id57">September</textPath></text><path d="M 81.18737489456691 109.33194174019688 l -13.381209873402366 6.637705809375584 a35.93706517652846,35.93706517652846 0 0,0 -0.2701213669018861,-0.5565300231239252 l 13.49348449691897 -6.406386830286374" fill="#ffa20f" stroke="none" /><path d="M 81.02952815118164 109.00673069616217 l -13.293796246362628 6.311579578770342 a35.71601357090146,35.71601357090146 0 0,0 -0.2588992309897345,-0.5576459107950318 l 13.40047009419219 -6.081813600696483" fill="#ff9f0e" stroke="none" /><path d="M 80.58989483394504 108.01547362559985 l -21.67478709814223 8.950682278088951 a44.450183559901795,44.450183559901795 0 0,0 -0.28595731403437963,-0.7097226022446863 l 21.825647026433995 -8.57626030800146" fill="#ecff1a" stroke="none" /><path d="M 79.97269907076064 106.31721596034903 l -11.142400116919719 3.514649732577495 a32.6835715048199,32.6835715048199 0 0,0 -0.16462127829007003,-0.5379918623753676 l 11.201248167715919 -3.32233089765008" fill="#ff750a" stroke="none" /><path d="M 79.67330655649465 105.27499134158121 l -21.298494693669173 5.527184015938185 a43.0039914416066,43.0039914416066 0 0,0 -0.17977447089167595,-0.7181096473030598 l 21.390480478855906 -5.159746529237734" fill="#feff18" stroke="none" /><path d="M 79.23777060512086 103.15116336523772 l -20.272421902970304 3.076823399371495 a41.504583196030836,41.504583196030836 0 0,0 -0.10112482792311599,-0.7072668109650386 l 20.32238078191002 -2.727411116426056" fill="#ffec16" stroke="none" /><path d="M 79.18660465613746 102.79330883721812 l -20.964863144992112 2.8136369163450103 a42.152825801421145,42.152825801421145 0 0,0 -0.09032445438307006,-0.7199747724564477 l 21.010189108622033 -2.452344389601154" fill="#fff517" stroke="none" /><line stroke="#e1ed5e" stroke-width="0.3" x1="15.007084014347285" x2="10.007500721073583" y1="101.09737516637583" y2="101.16192664675087" /><path d="M 14.007167355692545 101.11028546245083 a86.0,86.0 0 0,1 10.666146001902534,-42.60595125391555" fill="none" id="id58" stroke="none" /><text fill="#e1ed5e" style="font-size:6.75px; font-family:Arial;" text-anchor="middle"><textPath startOffset="22.20632615414155" xlink:href="#id58">October</textPath></text><path d="M 79.46518482838121 95.60439243477599 l -28.603932675506304 -6.122853398621657 a50.251911018699445,50.251911018699445 0 0,0 0.18833845052599055,-0.844284344249053 l 28.494299837978275 6.614315912420669" fill="#a6ff21" stroke="none" /><path d="M 79.54389044137918 95.25157060432595 l -14.296424362442586 -3.318595918794536 a35.67654006989664,35.67654006989664 0 0,0 0.14400954276704636,-0.5970125268503321 l 14.237182019414725 3.564193677304265" fill="#ff9f0e" stroke="none" /><path d="M 79.62865764111835 94.90015583598534 l -14.216192429634342 -3.558939058582496 a35.654902743419925,35.654902743419925 0 0,0 0.1541712359957129,-0.5940846626966787 l 14.152824861768321 3.8031201468280385" fill="#ff9f0e" stroke="none" /><path d="M 79.91906864156998 93.8553929516997 l -14.20785005609305 -4.347490364744154 a35.85811817451882,35.85811817451882 0 0,0 0.18568446256526794,-0.5886704891870155 l 14.130910109759578 4.591411020357584" fill="#ffa10e" stroke="none" /><path d="M 80.14247586403 93.16781622104843 l -22.139847747682385 -7.617440503379457 a44.41363402193437,44.41363402193437 0 0,0 0.2549488929230865,-0.7207748520807169 l 22.00544577394949 7.997412981886786" fill="#edff1a" stroke="none" /><path d="M 80.2630227832202 92.82701384747504 l -13.989774936177914 -5.0842872640513335 a35.88501863446285,35.88501863446285 0 0,0 0.2159857950918902,-0.5787345494649289 l 13.900184552584397 5.324344950545604" fill="#ffa20e" stroke="none" /><path d="M 80.38941819471856 92.48833698450439 l -19.141116886100512 -7.331838556155291 a41.497273288437356,41.497273288437356 0 0,0 0.2612479614787441,-0.6648475662860573 l 19.01207537474008 7.660235127337112" fill="#ffec16" stroke="none" /><path d="M 80.65960295795068 91.81776055985345 l -13.485434529753594 -5.7052114306114605 a35.64262209866287,35.64262209866287 0 0,0 0.24391313910211532,-0.5629851542525264 l 13.385230680808798 5.936495729450586" fill="#ff9e0e" stroke="none" /><path d="M 80.803312248108 91.48605970444005 l -13.379083064976319 -5.933769194809077 a35.63589698367686,35.63589698367686 0 0,0 0.25352002106161947,-0.5585977610570311 l 13.274960726951349 6.16318896470818" fill="#ff9e0e" stroke="none" /><path d="M 81.10775173730289 90.83032412892265 l -18.609383183191028 -9.032382465959499 a41.68557650804554,41.68557650804554 0 0,0 0.3188747842991408,-0.6428321071439758 l 18.451148385938474 9.351374161602436" fill="#ffef16" stroke="none" /><path d="M 81.26839172434947 90.50648371742162 l -18.27640431330325 -9.262810719828831 a41.489670984540126,41.489670984540126 0 0,0 0.32834247328195687,-0.6342531490705363 l 18.11425240686118 9.576036591159703" fill="#ffec16" stroke="none" /><path d="M 81.43458229118936 90.18545643968196 l -14.512081771262029 -7.671761601537007 a37.415128491931256,37.415128491931256 0 0,0 0.3058987870840376,-0.5667839944924931 l 14.37787488495952 7.920426579361973" fill="#ffb610" stroke="none" /><path d="M 81.6062741919709 89.86733742301443 l -14.337666007921067 -7.89827647296796 a37.369222272244166,37.369222272244166 0 0,0 0.3152224845891793,-0.5607456266141169 l 14.199585882039457 8.143905609516862" fill="#ffb610" stroke="none" /><line stroke="#e1ed5e" stroke-width="0.3" x1="26.266209847984243" x2="21.928928074336255" y1="57.711370442889674" y2="55.22380399835377" /><path d="M 25.398753493254645 57.213857153982495 a86.0,86.0 0 0,1 29.58750427330803,-30.492523968695096" fill="none" id="id59" stroke="none" /><text fill="#e1ed5e" style="font-size:6.75px; font-family:Arial;" text-anchor="middle"><textPath startOffset="21.46611528233685" xlink:href="#id59">November</textPath></text><path d="M 81.78341655067845 89.55222093294921 l -12.83854810551759 -7.363307972722344 a35.80022370637842,35.80022370637842 0 0,0 0.3111897375903574,-0.5319241351774442 l 12.709898693456907 7.5832115202536805" fill="#ffa00e" stroke="none" /><path d="M 82.15384107792192 88.93136811851018 l -12.455726209666823 -7.725351367395121 a35.656949517546096,35.656949517546096 0 0,0 0.3279970785162257,-0.5188126095438894 l 12.320901534904635 7.938611624653226" fill="#ff9f0e" stroke="none" /><path d="M 82.34701348167596 88.62581576622439 l -24.602721869177884 -15.85204242363726 a50.26740802279763,50.26740802279763 0 0,0 0.4749153754075868,-0.7233286988168354 l 24.326209858412376 16.27318918643176" fill="#a6ff21" stroke="none" /><path d="M 82.54541684631803 88.32363383020206 l -12.179752567702634 -8.147731148081467 a35.65373315820497,35.65373315820497 0 0,0 0.34562989421836793,-0.5071692212765767 l 12.037698207815525 8.35617839262846" fill="#ff9e0e" stroke="none" /><path d="M 82.95767976084542 87.72973835380427 l -11.897771802663277 -8.566249840206638 a35.66075066949471,35.66075066949471 0 0,0 0.36295408018573805,-0.49506895747735163 l 11.748555109963906 8.76978124135549" fill="#ff9f0e" stroke="none" /><path d="M 83.17141714833178 87.43820079747576 l -11.72863833325176 -8.75491424084661 a35.63589698367686,35.63589698367686 0 0,0 0.37116324104882076,-0.48840731795417164 l 11.57619915197883 8.955506334681807" fill="#ff9e0e" stroke="none" /><path d="M 83.6137871275137 86.86637796730984 l -11.447252056538147 -9.17502311201791 a35.67039974751812,35.67039974751812 0 0,0 0.3881304824069408,-0.47580207836608057 l 11.287623082054814 9.370709359992073" fill="#ff9f0e" stroke="none" /><path d="M 83.84228863543731 86.58626213691792 l -22.938579257158047 -19.043048991572192 a50.8130195255754,50.8130195255754 0 0,0 0.5644827691422982,-0.6681695516337445 l 22.607385874528624 19.435077492835052" fill="#a0ff22" stroke="none" /><path d="M 84.31358615837235 86.03803664274999 l -10.952045182300889 -9.748056825865632 a35.66192025470967,35.66192025470967 0 0,0 0.41207579703089403,-0.4550243872792772 l 10.78262574465395 9.935134000414466" fill="#ff9f0e" stroke="none" /><path d="M 84.5562425177563 85.77008943001954 l -10.784991110065388 -9.937313453070905 a35.6651366140508,35.6651366140508 0 0,0 0.41988510654196787,-0.4479041560165534 l 10.612338681552965 10.121487025965509" fill="#ff9f0e" stroke="none" /><path d="M 85.83668400450813 84.49514656593479 l -4.240298066031433 -4.641935550367866 a27.28710532300509,27.28710532300509 0 0,0 0.3495205481999929,-0.3138029992058485 l 4.159766530235468 4.714237558342993" fill="#ff2703" stroke="none" /><path d="M 86.10567301691215 84.25364557470407 l -15.503265297808566 -17.569754218813713 a44.431762592766205,44.431762592766205 0 0,0 0.5778376143399412,-0.5010950850491892 l 15.19853388482185 17.834014297282582" fill="#ecff1a" stroke="none" /><path d="M 87.51073957382395 83.11751280151077 l -7.285368102180611 -9.848071825258957 a33.249943145163165,33.249943145163165 0 0,0 0.4630524573225447,-0.33642730294221707 l 7.114770328504284 9.972018363017842" fill="#ff7d0b" stroke="none" /><path d="M 87.80319425747018 82.90503203632743 l -14.592624055083325 -20.45293218516283 a46.12502958772121,46.12502958772121 0 0,0 0.6502945212717415,-0.4555728697359521 l 14.238398394227923 20.701089897662726" fill="#d7ff1c" stroke="none" /><path d="M 88.39885842347998 82.49532879139004 l -2.526006822213118 -3.8114282634942183 a25.57249339787711,25.57249339787711 0 0,0 0.36901470154620863,-0.24001742669736983 l 2.460025094882622 3.854344614351123" fill="#ff0d01" stroke="none" /><path d="M 89.00827224532344 82.1063720568725 l -6.499353050777394 -10.580411738469545 a33.417193830902114,33.417193830902114 0 0,0 0.492725278600231,-0.29686146721587153 l 6.3162657059595135 10.690719815144035" fill="#ff7f0b" stroke="none" /><line stroke="#e1ed5e" stroke-width="0.3" x1="56.762969772571076" x2="54.21961505331055" y1="26.818313649435495" y2="22.513508569990535" /><path d="M 56.25429882871897 25.957352633546506 a86.0,86.0 0 0,1 42.265352541879196,-11.944610805530505" fill="none" id="id60" stroke="none" /><text fill="#e1ed5e" style="font-size:6.75px; font-family:Arial;" text-anchor="middle"><textPath startOffset="22.20632615414155" xlink:href="#id60">December</textPath></text><path d="M 89.63071344664047 81.73862282372117 l -11.133143196440747 -19.606607071906804 a43.54697137765072,43.54697137765072 0 0,0 0.6550209167651895,-0.3645184310037311 l 10.793998190603512 19.79534090047072" fill="#f8ff18" stroke="none" /><path d="M 89.94658935756843 81.56283822128135 l -6.688104674415389 -12.265456197994972 a34.970402996365934,34.970402996365934 0 0,0 0.530975534299651,-0.28362874157562296 l 6.475984093587433 12.378763666072345" fill="#ff950d" stroke="none" /><path d="M 90.58718382345135 81.22770947309562 l -7.488409659466813 -14.934382981176215 a37.70664760675946,37.70664760675946 0 0,0 0.5827090749098096,-0.2859328123805152 l 7.230229317546577 15.06107095369156" fill="#ffba11" stroke="none" /><path d="M 91.23893434514133 80.91482961587045 l -5.374453343599494 -11.707749014215752 a33.88239635015154,33.88239635015154 0 0,0 0.5321438183560036,-0.23875741967635197 l 5.172127406776716 11.798526764408631" fill="#ff860c" stroke="none" /><path d="M 91.90106846888425 80.62456947434976 l -14.961979214056878 -35.794201701103205 a59.7954339764505,59.7954339764505 0 0,0 0.9530712512800471,-0.38878169359109443 l 14.34362409318845 36.04644428087788" fill="#3dff2e" stroke="none" /><path d="M 92.23578459929587 80.48803036053334 l -7.2485133172668705 -18.215977336867084 a40.60517216572837,40.60517216572837 0 0,0 0.6516488860922387,-0.25282964383091816 l 6.933881266174955 18.338049684588555" fill="#ffe115" stroke="none" /><path d="M 92.91201910852362 80.23233633223022 l -6.85869008333203 -19.128194734810435 a41.32066592097874,41.32066592097874 0 0,0 0.6715946134723317,-0.23430617353458544 l 6.5284134657964135 19.24342176151723" fill="#ffea16" stroke="none" /><path d="M 93.59665428221793 80.00007090966166 l -5.66589151195808 -17.696596977112954 a39.58149270633665,39.58149270633665 0 0,0 0.6506719167700483,-0.20216693184904666 l 5.360434222477303 17.791504043844526" fill="#ffd313" stroke="none" /><path d="M 94.28887869178378 79.79150937346287 l -11.982882021197504 -42.400773146929225 a65.06149140679753,65.06149140679753 0 0,0 1.0803371135144257,-0.29529694309438537 l 11.251247018459356 42.6007566308499" fill="#34ff60" stroke="none" /><path d="M 94.63758080256005 79.69619591428918 l -4.453206401987983 -16.861238745072896 a38.439392743930455,38.439392743930455 0 0,0 0.641189409645008,-0.16345345719625382 l 4.162308103657975 16.935395198438016" fill="#ffc412" stroke="none" /><path d="M 95.33964822691252 79.52364482259891 l -4.535613427514988 -19.928287822714758 a41.43791683877825,41.43791683877825 0 0,0 0.6968619917874224,-0.15230704033236248 l 4.191908711574045 20.003408361142988" fill="#ffec16" stroke="none" /><path d="M 96.04723909329186 79.375362276772 l -2.4273427724199155 -12.665341135684619 a33.895846580123546,33.895846580123546 0 0,0 0.573977543725702,-0.10489072734374397 l 2.20897010759132 12.7052473443791" fill="#ff860c" stroke="none" /><path d="M 97.11714578562143 79.19881850522333 l -2.3777616612353505 -17.156695479080938 a38.32067984461225,38.32067984461225 0 0,0 0.6541618722790136,-0.08492898559326303 l 2.082085060448479 17.195082787838338" fill="#ffc312" stroke="none" /><path d="M 99.27714615592234 79.0124445844662 l -0.6563828669044811 -19.057617118357186 a40.06891734467027,40.06891734467027 0 0,0 0.689516165949608,-0.017808168295638978 l 0.32824006575999415 19.066092078795187" fill="#ffda14" stroke="none" /><path d="M 99.63851952072746 79.00311137660856 l -0.3738351153754226 -21.714517743383713 a42.717735460245706,42.717735460245706 0 0,0 0.7353155946479529,-0.006329093470553058 l 5.319311043223775e-15 21.717735460245706" fill="#fffc17" stroke="none" /></svg>