<?xml version="1.0" encoding="utf-8" ?>
<svg baseProfile="full" height="200mm" version="1.1" viewBox="0,0,200,200" width="200mm" xmlns="http://www.w3.org/2000/svg" xmlns:ev="http://www.w3.org/2001/xml-events" xmlns:xlink="http://www.w3.org/1999/xlink"><defs /><rect fill="#1a1a1a" height="200" width="200" x="0" y="0" /><text alignment-baseline="middle" fill="#e1ed5e" style="dominant-baseline: central; font-size:9.0px; font-family:Arial;" text-anchor="middle" x="100.0" y="100.0">2021</text><line stroke="#e1ed5e" stroke-width="0.3" x1="100.0" x2="100.0" y1="15.0" y2="10.0" /><path d="M 100.0 14.0 a86.0,86.0 0 0,1 42.46469731375804,11.215312516191453" fill="none" id="id25" stroke="none" /><text fill="#e1ed5e" style="font-size:6.75px; font-family:Arial;" text-anchor="middle"><textPath startOffset="22.20632615414155" xlink:href="#id25">January</textPath></text><path d="M 100.36148047927253 79.00311137660856 l 0.7176087337246619 -41.682888900426406 a62.68906558535474,62.68906558535474 0 0,0 1.0787694555747265,0.02786143235758879 l -1.4350048244942561 41.66436067592646" fill="#31ff3f" stroke="none" /><path d="M 103.2404852339499 79.25152402106235 l 6.4394106953165435 -41.23084923532627 a62.73067143923234,62.73067143923234 0 0,0 1.0654380181748757,0.17580640202406556 l -7.148177919630294 41.11389657036258" fill="#31ff3f" stroke="none" /><path d="M 105.36241919743992 79.69619591428918 l 10.645440267535163 -40.30698191244725 a62.68906558535474,62.68906558535474 0 0,0 1.040943309152687,0.2845291282527386 l -11.337681465911562 40.117766243368216" fill="#31ff3f" stroke="none" /><path d="M 107.76421540070413 80.48803036053334 l 15.413470717084573 -38.735037238056 a62.68906558535474,62.68906558535474 0 0,0 0.9991924500880822,0.4075956886192292 l -16.077947036761042 38.463980663253196" fill="#31ff3f" stroke="none" /><path d="M 108.09893153111575 80.62456947434976 l 4.589114623267124 -10.978740987714984 a32.89927420899347,32.89927420899347 0 0,0 0.5206172941218432,0.22290115543510342 l -4.777415675179283 10.89812030431709" fill="#ff6e0a" stroke="none" /><path d="M 110.36928655335952 81.73862282372117 l 20.58504129506391 -36.25236908479945 a62.68906558535474,62.68906558535474 0 0,0 0.9337783120854428,0.5409046695794667 l -21.20601633961468 35.89266025782993" fill="#31ff3f" stroke="none" /><line stroke="#e1ed5e" stroke-width="0.3" x1="143.23703022742887" x2="145.7803849466894" y1="26.81831364943548" y2="22.513508569990506" /><path d="M 143.74570117128098 25.957352633546492 a86.0,86.0 0 0,1 28.547481713284135,27.462654790039103" fill="none" id="id26" stroke="none" /><text fill="#e1ed5e" style="font-size:6.75px; font-family:Arial;" text-anchor="middle"><textPath startOffset="19.985693538727396" xlink:href="#id26">February</textPath></text><path d="M 112.19680574252982 82.90503203632743 l 24.213020692007476 -33.936820981765905 a62.68906558535474,62.68906558535474 0 0,0 0.8730338497067387,0.6342962202001824 l -24.793599858068003 33.51500552674905" fill="#31ff3f" stroke="none" /><path d="M 112.48926042617603 83.11751280151076 l 35.97793831699688 -48.63355093402507 a81.49491153802973,81.49491153802973 0 0,0 1.120569959796496,0.8439900618671418 l -36.809754430551756 48.007044282652075" fill="#4aeaff" stroke="none" /><path d="M 113.89432698308785 84.25364557470407 l 27.582928993443485 -31.259562017447774 a62.68906558535474,62.68906558535474 0 0,0 0.80298427811118,0.7209272132471283 l -28.116924259150657 30.78013579543135" fill="#31ff3f" stroke="none" /><path d="M 115.9244219780498 86.31012108654704 l 31.61306058341824 -27.17705999421455 a62.68906558535474,62.68906558535474 0 0,0 0.6964139834034895,0.8243344960718898 l -32.07618518030885 26.628866548513553" fill="#31ff3f" stroke="none" /><path d="M 116.15771136456269 86.58626213691792 l 16.166141233588785 -13.420736134729882 a42.010956208187764,42.010956208187764 0 0,0 0.45712223061346935,0.5603778039911536 l -16.394761956278664 13.140474161130626" fill="#ffeb16" stroke="none" /><path d="M 117.45458315368197 88.32363383020206 l 34.61614519155662 -23.156713803173407 a62.64745973147714,62.64745973147714 0 0,0 0.5918793712859035,0.9014728889780225 l -35.00962119820044 22.557422850217712" fill="#31ff3e" stroke="none" /><path d="M 117.65298651832404 88.62581576622439 l 35.044595844752095 -22.579957738179967 a62.68906558535474,62.68906558535474 0 0,0 0.5766570232484719,0.9121329262954069 l -35.42808046424652 21.973377164170355" fill="#31ff3f" stroke="none" /><line stroke="#e1ed5e" stroke-width="0.3" x1="172.23445277983987" x2="176.4835382374775" y1="55.19839476539836" y2="52.563006222186495" /><path d="M 173.08426987136738 54.67131705675599 a86.0,86.0 0 0,1 12.851231095245387,41.99856678651699" fill="none" id="id27" stroke="none" /><text fill="#e1ed5e" style="font-size:6.75px; font-family:Arial;" text-anchor="middle"><textPath startOffset="22.20632615414155" xlink:href="#id27">March</textPath></text><path d="M 118.73160827565052 90.50648371742162 l 37.222980499027486 -18.86527660910863 a62.73067143923234,62.73067143923234 0 0,0 0.4798597260677283,0.9673679263151511 l -37.54220023804862 18.22174909429453" fill="#31ff3f" stroke="none" /><path d="M 118.89224826269711 90.83032412892265 l 37.5047703275421 -18.203581846942292 a62.68906558535474,62.68906558535474 0 0,0 0.4628298073679049,0.97483761063358 l -37.812558328751756 17.555301820668173" fill="#31ff3f" stroke="none" /><path d="M 119.7369772167798 92.82701384747503 l 39.37723840939618 -14.31082291543308 a62.89709485474273,62.89709485474273 0 0,0 0.3610500481310674,1.02073710558889 l -39.61774153833705 13.630888183417577" fill="#31ff41" stroke="none" /><path d="M 120.08093135843002 93.85539295169968 l 39.824751434322415 -12.186060695706573 a62.64745973147714,62.64745973147714 0 0,0 0.3066566391108547,1.0338937399004813 l -40.028613970544974 11.49873756905956" fill="#31ff3e" stroke="none" /><path d="M 120.28053869075195 94.5502522615342 l 20.170578234374652 -5.420199374016478 a41.88613864655497,41.88613864655497 0 0,0 0.18111500156648888,0.6979099824945724 l -20.260889567811443 5.072192965973055" fill="#ffea15" stroke="none" /><path d="M 120.45610955862082 95.25157060432595 l 40.609337762406945 -9.426551643032477 a62.68906558535474,62.68906558535474 0 0,0 0.23495149215070543,1.0532414699536774 l -40.76558364155969 8.726132003528836" fill="#31ff3f" stroke="none" /><path d="M 120.6074358757038 95.95851677861258 l 20.495702992854305 -4.019570423791594 a41.88613864655497,41.88613864655497 0 0,0 0.1326679138231843,0.7087173005506457 l -20.561856630587346 3.666175045778385" fill="#ffea15" stroke="none" /><path d="M 120.73433829027371 96.67025291283417 l 20.70407637969228 -3.324887298191621 a41.969350354310166,41.969350354310166 0 0,0 0.10840904347155036,0.7142801461408635 l -20.758241316603133 2.9680080396586757" fill="#ffeb16" stroke="none" /><path d="M 120.83666639777658 97.38593545837742 l 20.682408381834883 -2.594712098096521 a41.84453279267737,41.84453279267737 0 0,0 0.0835090284795646,0.7154543579086594 l -20.724007763318035 2.2383140018630088" fill="#ffe915" stroke="none" /><path d="M 120.87857604477298 97.74499172005257 l 41.44801552663607 -4.4766280037260175 a62.68906558535474,62.68906558535474 0 0,0 0.10663969576210243,1.0738471832536478 l -41.518932348080405 3.762505289767935" fill="#31ff3f" stroke="none" /><path d="M 120.98425023603335 99.18683210126433 l 20.828899627368813 -0.8071478538641994 a41.84453279267737,41.84453279267737 0 0,0 0.021696002781307188,0.7199847078594241 l -20.839707324605765 0.44849299857977626" fill="#ffe915" stroke="none" /><line stroke="#e1ed5e" stroke-width="0.3" x1="184.98032266829074" x2="189.97916517819016" y1="98.17113171792111" y2="98.06355123074" /><path d="M 185.9800911702706 98.14961562048488 a86.0,86.0 0 0,1 -9.607161424134198,41.387399972396054" fill="none" id="id28" stroke="none" /><text fill="#e1ed5e" style="font-size:6.75px; font-family:Arial;" text-anchor="middle"><textPath startOffset="21.466115282336823" xlink:href="#id28">April</textPath></text><path d="M 120.99824983174949 100.27111621757518 l 20.884397967662835 0.2696462337907086 a41.88613864655497,41.88613864655497 0 0,0 -0.015513702893332915,0.720860813528201 l -20.876662202084493 -0.6290968631090245" fill="#ffea15" stroke="none" /><path d="M 120.9904718944345 100.63252640178507 l 20.876662202084493 0.6290968631090245 a41.88613864655497,41.88613864655497 0 0,0 -0.027919838292883813,0.7204869673267436 l -20.862740230940407 -0.9883610774497742" fill="#ffea15" stroke="none" /><path d="M 120.95626037817324 101.35467743843564 l 41.60223396806833 2.6892969799020854 a62.68906558535474,62.68906558535474 0 0,0 -0.07887908794676708,1.076242485306486 l -41.549778321457225 -3.4050126017053417" fill="#31ff3f" stroke="none" /><path d="M 120.81339534386255 102.79330883721812 l 34.267238092635324 4.598912258659471 a55.574464572285216,55.574464572285216 0 0,0 -0.13540572471834483,0.9470273233074566 l -34.182998316900374 -5.188085053947336" fill="#6fff28" stroke="none" /><path d="M 120.41448212921028 104.9243191809786 l 8.129607335781566 1.9609991124943684 a29.36277662939751,29.36277662939751 0 0,0 -0.12274855090202429,0.49031944390107013 l -8.09464747058448 -2.1006463957928343" fill="#ff3a05" stroke="none" /><path d="M 120.32669344350535 105.2749913415812 l 18.444520107102946 4.786547508821483 a40.05548107594059,40.05548107594059 0 0,0 -0.1789372253709298,0.6658919818869574 l -18.359394805390238 -5.103330423883989" fill="#ffd113" stroke="none" /><path d="M 120.02730092923936 106.31721596034902 l 19.958392232399856 6.295480074868525 a41.92774450043257,41.92774450043257 0 0,0 -0.22303114086234535,0.6864192705094602 l -19.847068840521263 -6.63809824535578" fill="#ffea16" stroke="none" /><path d="M 119.9155931802556 106.66101706037122 l 19.80761144720015 6.624901230951495 a41.88613864655497,41.88613864655497 0 0,0 -0.23458066481990275,0.6818012167418417 l -19.690639951437017 -6.964875150782636" fill="#ffea15" stroke="none" /><path d="M 119.54520255179757 107.68017299344265 l 6.544282294900552 2.5715374404312623 a28.03138930531432,28.03138930531432 0 0,0 -0.18033178161339297,0.44756869306267083 l -6.499047899029766 -2.683805501336747" fill="#ff2603" stroke="none" /><path d="M 119.26925614724726 108.34839909993367 l 7.749900604059929 3.35764197294933 a29.445988337152706,29.445988337152706 0 0,0 -0.20550343379565192,0.4633559918870966 l -7.690956085533005 -3.4905463013291143" fill="#ff3b05" stroke="none" /><path d="M 119.12269723197855 108.67885076344098 l 4.773696880675658 2.166545980135312 a26.24233758857754,26.24233758857754 0 0,0 -0.19022618544951012,0.4097302801423342 l -4.735696078386317 -2.248396327556477" fill="#ff0a01" stroke="none" /><path d="M 118.81262510543309 109.33194174019688 l 4.099937449094195 2.0337606899075893 a25.57664392653595,25.57664392653595 0 0,0 -0.19903662727987848,0.3927181482329229 l -4.064322152028048 -2.1040330498432063" fill="#ff0000" stroke="none" /><line stroke="#e1ed5e" stroke-width="0.3" x1="174.80103733775053" x2="179.2010983576182" y1="140.37084112569926" y2="142.7455964860345" /><path d="M 175.68104954172406 140.8457921977663 a86.0,86.0 0 0,1 -30.038265399797805,32.042727171017184" fill="none" id="id29" stroke="none" /><text fill="#e1ed5e" style="font-size:6.75px; font-family:Arial;" text-anchor="middle"><textPath startOffset="22.206326154141568" xlink:href="#id29">May</textPath></text><path d="M 118.48025628344425 109.97397251340804 l 14.682077326779929 7.924058706275804 a37.68394740491742,37.68394740491742 0 0,0 -0.3129985434479126,0.5681832729306372 l -14.543502373880507 -8.175612497604247" fill="#ffb110" stroke="none" /><path d="M 117.55443506779139 111.5257021239791 l 13.94653673305092 9.156867049581535 a37.68394740491742,37.68394740491742 0 0,0 -0.36068363829781513,0.5391731010565507 l -13.786849989342384 -9.395577064843893" fill="#ffb110" stroke="none" /><path d="M 117.35343817320211 111.8261652097733 l 13.786849989342384 9.395577064843893 a37.68394740491742,37.68394740491742 0 0,0 -0.3699111777428309,0.5328846408178579 l -13.623077904437418 -9.631502967848771" fill="#ffb110" stroke="none" /><path d="M 116.71984013943494 112.70617746262583 l 13.250347156155305 10.06954976862588 a37.64234155103982,37.64234155103982 0 0,0 -0.39648711119233565,0.512513038216541 l -13.0750532277449 -10.296140800955675" fill="#ffb110" stroke="none" /><path d="M 116.0416608686014 113.55231037782055 l 12.744677439012742 10.766953978984505 a37.68394740491742,37.68394740491742 0 0,0 -0.42288116547188587,0.4919063322704939 l -12.557453763970079 -10.984737410416527" fill="#ffb110" stroke="none" /><path d="M 115.56566222782051 114.09645910891815 l 12.366509044365102 11.19926582708379 a37.68394740491742,37.68394740491742 0 0,0 -0.4395627751302292,0.47705857770141863 l -12.171899861239153 -11.410475659586544" fill="#ffb110" stroke="none" /><path d="M 114.55890576462653 115.13401014063108 l 11.566667526198955 12.02357281960837 a37.68394740491742,37.68394740491742 0 0,0 -0.47134393342730113,0.4456851088604717 l -11.357987758380848 -12.220892565214765" fill="#ffb110" stroke="none" /><path d="M 114.29624159901734 115.38237550388516 l 11.357987758380848 12.220892565214765 a37.68394740491742,37.68394740491742 0 0,0 -0.4789458352494982,0.4375056648042682 l -11.145942373664484 -12.414590996605614" fill="#ffb110" stroke="none" /><path d="M 112.63410532772338 116.77436683061366 l 10.137588559832453 13.45972863684403 a37.85037082042781,37.85037082042781 0 0,0 -0.5238041255069971,0.38749776966202504 l -9.904399463906891 -13.632236355245825" fill="#ffb310" stroke="none" /><path d="M 111.45004920935366 117.60387380957326 l 9.07407760563225 13.950937169539179 a37.64234155103982,37.64234155103982 0 0,0 -0.5462050706746099,0.348613918903012 l -8.832590732910708 -14.105065517265999" fill="#ffb110" stroke="none" /><path d="M 111.1453310114006 117.79835938074945 l 11.040738416138383 17.631331896582495 a41.80292693879977,41.80292693879977 0 0,0 -0.613151000040969,0.37664742367388565 l -10.735608216165106 -17.81876778708476" fill="#ffe815" stroke="none" /><line stroke="#e1ed5e" stroke-width="0.3" x1="143.8653032363475" x2="146.44561519142675" y1="172.8068346515853" y2="177.08958963109032" /><path d="M 144.38136562736335 173.6633856474863 a86.0,86.0 0 0,1 -40.68145358897372,12.25698825130547" fill="none" id="id30" stroke="none" /><text fill="#e1ed5e" style="font-size:6.75px; font-family:Arial;" text-anchor="middle"><textPath startOffset="21.466115282336833" xlink:href="#id30">June</textPath></text><path d="M 108.92500713936063 119.00905698771935 l 8.858933523394393 18.86832913039947 a41.84453279267737,41.84453279267737 0 0,0 -0.6546318202168685,0.3005093609983605 l -8.532833707410106 -19.018025561731903" fill="#ffe915" stroke="none" /><path d="M 107.93186726928326 119.44442032107085 l 7.873146066749489 19.30046938176969 a41.84453279267737,41.84453279267737 0 0,0 -0.6692712689493008,0.2663168500997648 l -7.539753721758322 -19.433133076275524" fill="#ffe915" stroke="none" /><path d="M 106.91757812671514 119.82793768551818 l 6.88007123109278 19.720431217856433 a41.88613864655497,41.88613864655497 0 0,0 -0.6828044299573096,0.23164433489438044 l -6.539597068198243 -19.835938539648936" fill="#ffea15" stroke="none" /><path d="M 104.48393922423573 120.51570834832081 l 3.5623717230473857 16.299190431333795 a37.68394740491742,37.68394740491742 0 0,0 -0.6349001123288578,0.13304949155667645 l -3.2812801492891497 -16.35809590361701" fill="#ffb110" stroke="none" /><path d="M 102.70371172650421 120.8252237178851 l 2.689052284765876 20.712309996060615 a41.88613864655497,41.88613864655497 0 0,0 -0.715799357834112,0.08667333374393768 l -2.3321255038803836 -20.755528858529903" fill="#ffea15" stroke="none" /><path d="M 102.34483914955558 120.86867818915974 l 2.3321255038803836 20.755528858529903 a41.88613864655497,41.88613864655497 0 0,0 -0.7171852433980708,0.07433918287175088 l -1.97450766387671 -20.792597409857414" fill="#ffea15" stroke="none" /><line stroke="#e1ed5e" stroke-width="0.3" x1="102.19456741930631" x2="102.32365962044197" y1="184.97166512339345" y2="189.96999836594603" /><path d="M 102.22038585953345 185.97133177190398 a86.0,86.0 0 0,1 -42.740103519485714,-10.115201625700543" fill="none" id="id31" stroke="none" /><text fill="#e1ed5e" style="font-size:6.75px; font-family:Arial;" text-anchor="middle"><textPath startOffset="22.20632615414155" xlink:href="#id31">July</textPath></text><path d="M 98.73552117531835 120.96189622390904 l -1.257622859425418 20.848241467964815 a41.88613864655497,41.88613864655497 0 0,0 -0.7193191144345022,-0.04960845761715376 l 1.6163047346388504 -20.823504665831376" fill="#ffea15" stroke="none" /><path d="M 97.2962882734958 120.8252237178851 l -2.6890522847658618 20.712309996060615 a41.88613864655497,41.88613864655497 0 0,0 -0.7142013654721743,-0.09898180143677544 l 3.0451822414248673 -20.662953629131234" fill="#ffea15" stroke="none" /><path d="M 95.86986931433489 120.58985236759428 l -3.1012597919715352 15.460644258032033 a36.76861861961022,36.76861861961022 0 0,0 -0.6194786294792634,-0.12981776988527796 l 3.3669298828801857 -15.404970507420215" fill="#ffa40f" stroke="none" /><path d="M 94.81253420990036 120.34920634021253 l -5.169617079044754 20.279190051169063 a41.92774450043257,41.92774450043257 0 0,0 -0.6978165435361525,-0.18429969150376693 l 5.517924065392396 -20.187199010361716" fill="#ffea16" stroke="none" /><path d="M 92.06813273071674 119.44442032107085 l -6.301659825881325 15.448080283612072 a37.68394740491742,37.68394740491742 0 0,0 -0.5985081894445953,-0.2501764717282931 l 6.566639474823383 -15.337318768863804" fill="#ffb110" stroke="none" /><path d="M 91.40352486487194 119.15986991738527 l -5.109481261922221 11.388039258522097 a33.48175616327986,33.48175616327986 0 0,0 -0.5238013551213757,-0.24045151130211417 l 5.3047506128110165 -11.298400676885908" fill="#ff760a" stroke="none" /><line stroke="#e1ed5e" stroke-width="0.3" x1="58.666819895761336" x2="56.23545636021788" y1="174.27360380694188" y2="178.64263932499728" /><path d="M 58.180547188652646 175.14741091055294 a86.0,86.0 0 0,1 -31.652253787137756,-30.449443065178592" fill="none" id="id32" stroke="none" /><text fill="#e1ed5e" style="font-size:6.75px; font-family:Arial;" text-anchor="middle"><textPath startOffset="22.20632615414155" xlink:href="#id32">August</textPath></text><path d="M 89.7882731507175 118.34994917583269 l -8.477120511387518 15.232950590751413 a38.432852774714206,38.432852774714206 0 0,0 -0.5753054600222435,-0.3266734547508303 l 8.738074738330969 -15.08477397020595" fill="#ffbb11" stroke="none" /><path d="M 87.65650970185807 116.9893568818739 l -8.779455327265614 12.083883584032725 a35.93650154205824,35.93650154205824 0 0,0 -0.49731845041421735,-0.36790430041145494 l 8.986158748098395 -11.930969334881503" fill="#ff990e" stroke="none" /><path d="M 87.07902340077011 116.55440617244103 l -11.92933958019256 15.283916913157729 a40.388327906961386,40.388327906961386 0 0,0 -0.5443625521780879,-0.4324745341102743 l 12.190659625088006 -15.076308465042324" fill="#ffd614" stroke="none" /><path d="M 85.97065885151581 115.62618273729859 l -14.120046697809357 15.727212534353255 a42.13577376982057,42.13577376982057 0 0,0 -0.535526523939419,-0.4891907824073273 l 14.388672771215631 -15.481828985359352" fill="#ffed16" stroke="none" /><path d="M 85.70375840098266 115.38237550388516 l -11.357987758380844 12.220892565214767 a37.68394740491742,37.68394740491742 0 0,0 -0.4713439334272844,-0.4456851088604549 l 11.566667526198946 -12.02357281960838" fill="#ffb110" stroke="none" /><path d="M 84.19399662182784 113.82643327865904 l -15.688988368451383 13.724073422989234 a41.84453279267737,41.84453279267737 0 0,0 -0.4695703612431239,-0.5462164149218662 l 15.922901239265284 -13.451979908905837" fill="#ffe915" stroke="none" /><path d="M 83.72743513129214 113.27417163493432 l -16.861369479136062 13.754482730408567 a42.75986157798456,42.75986157798456 0 0,0 -0.460344704085518,-0.5743507995807544 l 17.095632095276443 -13.462204097249552" fill="#fff517" stroke="none" /><path d="M 82.44556493220864 111.52570212397912 l -36.06623090317653 23.67997788133682 a64.14527047107072,64.14527047107072 0 0,0 -0.5980634283618881,-0.9282077220645207 l 36.46849919491546 -23.05564855935085" fill="#33ff51" stroke="none" /><line stroke="#e1ed5e" stroke-width="0.3" x1="26.63291911575756" x2="22.317208475507996" y1="142.92168965132927" y2="145.44649492493687" /><path d="M 25.769776987707644 143.4266507060508 a86.0,86.0 0 0,1 -11.730757126820373,-40.83630448921669" fill="none" id="id33" stroke="none" /><text fill="#e1ed5e" style="font-size:6.75px; font-family:Arial;" text-anchor="middle"><textPath startOffset="21.46611528233685" xlink:href="#id33">September</textPath></text><path d="M 81.87401531095188 110.60418214915194 l -18.06361792338819 10.56769593588094 a41.92774450043257,41.92774450043257 0 0,0 -0.3590771978207591,-0.6260813611075794 l 18.242847117361325 -10.255194728915052" fill="#ffea16" stroke="none" /><path d="M 81.69416730710424 110.29060199501025 l -18.206579031640928 10.23480666782377 a41.88613864655497,41.88613864655497 0 0,0 -0.3479014617592244,-0.6315422079036015 l 18.380056902851667 -9.919893941522346" fill="#ffea15" stroke="none" /><path d="M 81.18737489456691 109.33194174019688 l -18.71062363132077 9.281344239396452 a41.88613864655497,41.88613864655497 0 0,0 -0.31483764658776503,-0.6486588038013797 l 18.867614534523256 -8.957896479629788" fill="#ffea15" stroke="none" /><path d="M 80.87730276802145 108.67885076344099 l -23.070595067608213 10.470607215425385 a46.33546866022546,46.33546866022546 0 0,0 -0.3233750488243057,-0.7291253665791457 l 23.247411201163796 -10.071933512353542" fill="#dcff1b" stroke="none" /><path d="M 80.73074385275274 108.34839909993369 l -19.62442811089145 8.502277240270331 a42.387073127241266,42.387073127241266 0 0,0 -0.28429417429056575,-0.6719874488814291 l 19.767873266374323 -8.163215265722744" fill="#fff016" stroke="none" /><path d="M 80.58989483394504 108.01547362559985 l -12.347421890061995 5.098912842421327 a34.35880756301966,34.35880756301966 0 0,0 -0.22103738471416423,-0.5485966617165663 l 12.433361889033547 -4.885616812861955" fill="#ff830c" stroke="none" /><path d="M 80.45479744820244 107.68017299344265 l -19.598770148491525 7.701222067166104 a42.05755476453068,42.05755476453068 0 0,0 -0.2589658293982421,-0.6760780631013997 l 19.728430257483275 -7.3627204372315465" fill="#ffec16" stroke="none" /><path d="M 79.97269907076064 106.31721596034903 l -19.89331914440555 6.274954056334171 a41.8595109000733,41.8595109000733 0 0,0 -0.21083883662931283,-0.6890335171580425 l 19.998384753540993 -5.93159356662408" fill="#ffe915" stroke="none" /><path d="M 79.58551787078972 104.9243191809786 l -20.55860402376999 4.959083825278046 a42.14825552598384,42.14825552598384 0 0,0 -0.16405593112896524,-0.7067486575609555 l 20.640920520829514 -4.604466510368516" fill="#ffed16" stroke="none" /><path d="M 79.35854240842038 103.8639653848113 l -20.242453844605603 3.7892741155597216 a41.59406555233422,41.59406555233422 0 0,0 -0.12568054461298114,-0.7048832386118717 l 20.30468083155777 -3.440272126214636" fill="#ffe615" stroke="none" /><path d="M 79.29508885075956 103.50808413554451 l -20.413387050402225 3.458690488844376 a41.70432106510986,41.70432106510986 0 0,0 -0.1138294532859792,-0.7088161142705022 l 20.469898258049497 -3.10679514488066" fill="#ffe715" stroke="none" /><path d="M 79.1416061653843 102.43462659150553 l -39.757830729823596 4.640600454804276 a61.0277438400222,61.0277438400222 0 0,0 -0.11280745525966761,-1.0444569334846339 l 39.83182048658431 -3.9555471994348608" fill="#34ff2f" stroke="none" /><path d="M 79.0235259727143 100.99374915477108 l -21.242176123985196 1.0063366484400609 a42.26600009245745,42.26600009245745 0 0,0 -0.02817304067644531,-0.7270209957668642 l 21.256351297512843 -0.6405384056591998" fill="#ffef16" stroke="none" /><line stroke="#e1ed5e" stroke-width="0.3" x1="15.007084014347285" x2="10.007500721073583" y1="101.09737516637583" y2="101.16192664675087" /><path d="M 14.007167355692545 101.11028546245083 a86.0,86.0 0 0,1 10.666146001902534,-42.60595125391555" fill="none" id="id34" stroke="none" /><text fill="#e1ed5e" style="font-size:6.75px; font-family:Arial;" text-anchor="middle"><textPath startOffset="22.20632615414155" xlink:href="#id34">October</textPath></text><path d="M 79.00175016825051 100.2711162175752 l -42.0466998764093 0.5428805887801047 a63.050204397012294,63.050204397012294 0 0,0 -0.004670827327515288,-1.0853357755638522 l 42.04981500102632 0.18096466498742272" fill="#31ff43" stroke="none" /><path d="M 79.01574976396665 99.18683210126434 l -42.002037356363594 -1.627635396810197 a63.03356205546125,63.03356205546125 0 0,0 0.051346514617084976,-1.083843769915066 l 41.967797233513004 2.3503902733482724" fill="#31ff43" stroke="none" /><path d="M 79.05617556472873 98.46500227214037 l -40.37959835035204 -2.9594686448617646 a61.48790458390843,61.48790458390843 0 0,0 0.0864505772236861,-1.0549160134113456 l 40.32267328930886 3.6540985754808886" fill="#2fff2f" stroke="none" /><path d="M 79.21141760316559 97.0276538004421 l -42.41888951266416 -6.065041984374717 a63.850284967078544,63.850284967078544 0 0,0 0.16492865055643466,-1.0866737391072254 l 42.30820496866842 6.794314835874035" fill="#32ff4d" stroke="none" /><path d="M 79.32604984820605 96.31383870115002 l -41.01025441084257 -7.312120400567098 a62.657029077868984,62.657029077868984 0 0,0 0.19845652052729554,-1.0601626682110425 l 40.878312166405415 8.016961146240712" fill="#31ff3e" stroke="none" /><path d="M 79.46518482838121 95.60439243477599 l -40.82986470159328 -8.739891772556334 a62.75480283448134,62.75480283448134 0 0,0 0.23519786788829158,-1.0543459240758626 l 40.67337244670295 9.441415866182156" fill="#31ff3f" stroke="none" /><path d="M 79.71946130924805 94.55025226153421 l -60.84161607225587 -16.349243215397365 a84.0,84.0 0 0,0 0.38725291773455695,-1.3931547863242297 l 60.551176383954946 17.394109305140535" fill="#4dd2ff" stroke="none" /><path d="M 79.91906864156998 93.8553929516997 l -19.473547537020778 -5.958752376351136 a41.36481729746865,41.36481729746865 0 0,0 0.2141998593347553,-0.6790720894811471 l 19.368092193917818 6.293074632258697" fill="#ffe315" stroke="none" /><path d="M 80.95270993114464 91.15688171328213 l -38.94127451599025 -18.079332836093485 a63.93349667483374,63.93349667483374 0 0,0 0.47201737135612365,-0.9941889635137034 l 38.62429895079238 18.746964215247722" fill="#33ff4e" stroke="none" /><path d="M 81.43458229118936 90.18545643968196 l -37.45770820020552 -19.80188728132587 a63.36973735479227,63.36973735479227 0 0,0 0.5180986027843093,-0.9599580254183804 l 37.11130149820274 20.443726290076725" fill="#32ff47" stroke="none" /><line stroke="#e1ed5e" stroke-width="0.3" x1="26.266209847984243" x2="21.928928074336255" y1="57.711370442889674" y2="55.22380399835377" /><path d="M 25.398753493254645 57.213857153982495 a86.0,86.0 0 0,1 29.58750427330803,-30.492523968695096" fill="none" id="id35" stroke="none" /><text fill="#e1ed5e" style="font-size:6.75px; font-family:Arial;" text-anchor="middle"><textPath startOffset="21.46611528233685" xlink:href="#id35">November</textPath></text><path d="M 81.96595687620814 89.24020034530311 l -35.087189415786625 -20.934358755203263 a61.857780624880306,61.857780624880306 0 0,0 0.553433320594855,-0.9096988635642891 l 34.721640296905555 21.535225391974627" fill="#30ff34" stroke="none" /><path d="M 82.54541684631803 88.32363383020206 l -34.951932174383806 -23.381340867138256 a63.051452572628634,63.051452572628634 0 0,0 0.6112253879921404,-0.8968978356270121 l 34.54428232072292 23.979516726035683" fill="#31ff43" stroke="none" /><path d="M 82.95767976084542 87.72973835380427 l -30.34778022391638 -21.850029720317647 a58.39534146518647,58.39534146518647 0 0,0 0.5943460821972977,-0.8106873881775596 l 29.967171529205448 22.369179552166706" fill="#50ff2b" stroke="none" /><path d="M 83.84228863543731 86.58626213691792 l -32.047374235536104 -26.604948404907116 a62.6516203168649,62.6516203168649 0 0,0 0.6959980032266208,-0.823842106749376 l 31.58466561882236 27.15264946128561" fill="#31ff3e" stroke="none" /><path d="M 84.5562425177563 85.77008943001954 l -30.927189921465587 -28.49637772862249 a63.05394892386129,63.05394892386129 0 0,0 0.7423331739421103,-0.7918692722776943 l 30.43208942555302 29.024516417778234" fill="#31ff43" stroke="none" /><path d="M 85.05521093208273 85.24692304244772 l -29.925306427436016 -29.54142388332981 a63.050204397012294,63.050204397012294 0 0,0 0.7691050075546669,-0.7658022262314607 l 29.412365619714034 30.052161960211382" fill="#31ff43" stroke="none" /><path d="M 86.10567301691215 84.25364557470407 l -27.733506460104305 -31.430210524668777 a62.916649606065214,62.916649606065214 0 0,0 0.8182346274183069,-0.7095650058792431 l 27.18837803403922 31.9029405239677" fill="#31ff41" stroke="none" /><path d="M 88.09926311788651 82.69761687909137 l -23.727831465876413 -34.49769831210941 a62.8700510497223,62.8700510497223 0 0,0 0.8969320074722863,-0.605612495263505 l 23.130494763997586 34.90102271967158" fill="#31ff41" stroke="none" /><path d="M 89.00827224532344 82.1063720568725 l -21.943530728344715 -35.72226162939022 a62.9237226012244,62.9237226012244 0 0,0 0.9277891167684253,-0.5589825617497011 l 21.32537954535864 36.09469080059854" fill="#31ff42" stroke="none" /><line stroke="#e1ed5e" stroke-width="0.3" x1="56.762969772571076" x2="54.21961505331055" y1="26.818313649435495" y2="22.513508569990535" /><path d="M 56.25429882871897 25.957352633546506 a86.0,86.0 0 0,1 42.265352541879196,-11.944610805530505" fill="none" id="id36" stroke="none" /><text fill="#e1ed5e" style="font-size:6.75px; font-family:Arial;" text-anchor="middle"><textPath startOffset="22.20632615414155" xlink:href="#id36">December</textPath></text><path d="M 90.91171255644093 81.06846463323043 l -18.142123410819583 -37.79130591029449 a62.9203941329142,62.9203941329142 0 0,0 0.9804249482812288,-0.4603226592813256 l 17.488920251238746 38.097993552215826" fill="#31ff42" stroke="none" /><path d="M 91.90106846888425 80.62456947434976 l -16.180159135188376 -38.708507167070486 a62.954094874555054,62.954094874555054 0 0,0 1.0034167157131924,-0.40931887263270317 l 15.511458549886802 38.981286925886764" fill="#31ff42" stroke="none" /><path d="M 92.57280143429618 80.3572730644239 l -14.828449686593123 -39.216830611836016 a62.92663501099584,62.92663501099584 0 0,0 1.0164679416851625,-0.37437372124848023 l 14.151199419135391 39.466267600890816" fill="#31ff42" stroke="none" /><path d="M 94.28887869178378 79.79150937346287 l -11.332476542284518 -40.09934890557185 a62.66992689257104,62.66992689257104 0 0,0 1.0406255137921199,-0.2844422627759089 l 10.640553139268675 40.28847770917406" fill="#31ff3e" stroke="none" /><path d="M 96.04723909329186 79.375362276772 l -7.853652284608328 -40.97863164436745 a62.7244305611507,62.7244305611507 0 0,0 1.0621482635041892,-0.19410080607455 l 7.147108900001245 41.10774793179273" fill="#31ff3f" stroke="none" /><path d="M 97.83486435360386 79.11191278185805 l -4.296240195134613 -41.44786034788678 a62.66992689257104,62.66992689257104 0 0,0 1.0739681893203896,-0.10198622032509803 l 3.582146878723987 41.51567211272706" fill="#31ff3e" stroke="none" /><path d="M 98.91598698831166 79.02799685794201 l -2.1621771739400097 -41.83085073391448 a62.88669339127333,62.88669339127333 0 0,0 1.0815288494752415,-0.04657290731477825 l 1.441807492075444 41.86187136775345" fill="#31ff41" stroke="none" /><path d="M 99.63851952072746 79.00311137660856 l -0.7086278819074138 -41.16122879382826 a62.167328177729644,62.167328177729644 0 0,0 1.0701083611799393,-0.009210760509942413 l 1.008308733646105e-14 41.167328177729644" fill="#30ff38" stroke="none" /></svg>