<?xml version="1.0" encoding="utf-8" ?>
<svg baseProfile="full" height="200mm" version="1.1" viewBox="0,0,200,200" width="200mm" xmlns="http://www.w3.org/2000/svg" xmlns:ev="http://www.w3.org/2001/xml-events" xmlns:xlink="http://www.w3.org/1999/xlink"><defs /><rect fill="#1a1a1a" height="200" width="200" x="0" y="0" /><text alignment-baseline="middle" fill="#e1ed5e" style="dominant-baseline: central; font-size:9.0px; font-family:Arial;" text-anchor="middle" x="100.0" y="100.0">2019</text><line stroke="#e1ed5e" stroke-width="0.3" x1="100.0" x2="100.0" y1="15.0" y2="10.0" /><path d="M 100.0 14.0 a86.0,86.0 0 0,1 42.46469731375804,11.215312516191453" fill="none" id="id1" stroke="none" /><text fill="#e1ed5e" style="font-size:6.75px; font-family:Arial;" text-anchor="middle"><textPath startOffset="22.20632615414155" xlink:href="#id1">January</textPath></text><line stroke="#e1ed5e" stroke-width="0.3" x1="143.23703022742887" x2="145.7803849466894" y1="26.81831364943548" y2="22.513508569990506" /><path d="M 143.74570117128098 25.957352633546492 a86.0,86.0 0 0,1 28.547481713284135,27.462654790039103" fill="none" id="id2" stroke="none" /><text fill="#e1ed5e" style="font-size:6.75px; font-family:Arial;" text-anchor="middle"><textPath startOffset="19.985693538727396" xlink:href="#id2">February</textPath></text><line stroke="#e1ed5e" stroke-width="0.3" x1="172.23445277983987" x2="176.4835382374775" y1="55.19839476539836" y2="52.563006222186495" /><path d="M 173.08426987136738 54.67131705675599 a86.0,86.0 0 0,1 12.851231095245387,41.99856678651699" fill="none" id="id3" stroke="none" /><text fill="#e1ed5e" style="font-size:6.75px; font-family:Arial;" text-anchor="middle"><textPath startOffset="22.20632615414155" xlink:href="#id3">March</textPath></text><path d="M 118.03404312379186 89.2402003453031 l 19.08866552869197 -11.389027704679172 a43.228070175438596,43.228070175438596 0 0,0 0.37575552389733796,0.6422879932832096 l -19.281880727059633 11.058760299042069" fill="#ff4c07" stroke="none" /><path d="M 120.08093135843002 93.85539295169968 l 17.61485206879826 -5.390006182719574 a39.421052631578945,39.421052631578945 0 0,0 0.1929643685797869,0.6505799231249351 l -17.705022334489747 5.085996872848109" fill="#ff0000" stroke="none" /><line stroke="#e1ed5e" stroke-width="0.3" x1="184.98032266829074" x2="189.97916517819016" y1="98.17113171792111" y2="98.06355123074" /><path d="M 185.9800911702706 98.14961562048488 a86.0,86.0 0 0,1 -9.607161424134198,41.387399972396054" fill="none" id="id4" stroke="none" /><text fill="#e1ed5e" style="font-size:6.75px; font-family:Arial;" text-anchor="middle"><textPath startOffset="21.466115282336823" xlink:href="#id4">April</textPath></text><line stroke="#e1ed5e" stroke-width="0.3" x1="174.80103733775053" x2="179.2010983576182" y1="140.37084112569926" y2="142.7455964860345" /><path d="M 175.68104954172406 140.8457921977663 a86.0,86.0 0 0,1 -30.038265399797805,32.042727171017184" fill="none" id="id5" stroke="none" /><text fill="#e1ed5e" style="font-size:6.75px; font-family:Arial;" text-anchor="middle"><textPath startOffset="22.206326154141568" xlink:href="#id5">May</textPath></text><line stroke="#e1ed5e" stroke-width="0.3" x1="143.8653032363475" x2="146.44561519142675" y1="172.8068346515853" y2="177.08958963109032" /><path d="M 144.38136562736335 173.6633856474863 a86.0,86.0 0 0,1 -40.68145358897372,12.25698825130547" fill="none" id="id6" stroke="none" /><text fill="#e1ed5e" style="font-size:6.75px; font-family:Arial;" text-anchor="middle"><textPath startOffset="21.466115282336833" xlink:href="#id6">June</textPath></text><line stroke="#e1ed5e" stroke-width="0.3" x1="102.19456741930631" x2="102.32365962044197" y1="184.97166512339345" y2="189.96999836594603" /><path d="M 102.22038585953345 185.97133177190398 a86.0,86.0 0 0,1 -42.740103519485714,-10.115201625700543" fill="none" id="id7" stroke="none" /><text fill="#e1ed5e" style="font-size:6.75px; font-family:Arial;" text-anchor="middle"><textPath startOffset="22.20632615414155" xlink:href="#id7">July</textPath></text><line stroke="#e1ed5e" stroke-width="0.3" x1="58.666819895761336" x2="56.23545636021788" y1="174.27360380694188" y2="178.64263932499728" /><path d="M 58.180547188652646 175.14741091055294 a86.0,86.0 0 0,1 -31.652253787137756,-30.449443065178592" fill="none" id="id8" stroke="none" /><text fill="#e1ed5e" style="font-size:6.75px; font-family:Arial;" text-anchor="middle"><textPath startOffset="22.20632615414155" xlink:href="#id8">August</textPath></text><line stroke="#e1ed5e" stroke-width="0.3" x1="26.63291911575756" x2="22.317208475507996" y1="142.92168965132927" y2="145.44649492493687" /><path d="M 25.769776987707644 143.4266507060508 a86.0,86.0 0 0,1 -11.730757126820373,-40.83630448921669" fill="none" id="id9" stroke="none" /><text fill="#e1ed5e" style="font-size:6.75px; font-family:Arial;" text-anchor="middle"><textPath startOffset="21.46611528233685" xlink:href="#id9">September</textPath></text><line stroke="#e1ed5e" stroke-width="0.3" x1="15.007084014347285" x2="10.007500721073583" y1="101.09737516637583" y2="101.16192664675087" /><path d="M 14.007167355692545 101.11028546245083 a86.0,86.0 0 0,1 10.666146001902534,-42.60595125391555" fill="none" id="id10" stroke="none" /><text fill="#e1ed5e" style="font-size:6.75px; font-family:Arial;" text-anchor="middle"><textPath startOffset="22.20632615414155" xlink:href="#id10">October</textPath></text><line stroke="#e1ed5e" stroke-width="0.3" x1="26.266209847984243" x2="21.928928074336255" y1="57.711370442889674" y2="55.22380399835377" /><path d="M 25.398753493254645 57.213857153982495 a86.0,86.0 0 0,1 29.58750427330803,-30.492523968695096" fill="none" id="id11" stroke="none" /><text fill="#e1ed5e" style="font-size:6.75px; font-family:Arial;" text-anchor="middle"><textPath startOffset="21.46611528233685" xlink:href="#id11">November</textPath></text><path d="M 88.39885842347998 82.49532879139004 l -17.028576232201907 -25.69399107228713 a51.82456140350877,51.82456140350877 0 0,0 0.7478357609300047,-0.486413181313896 l 16.583773445487616 25.98330317776056" fill="#ffe915" stroke="none" /><path d="M 89.00827224532344 82.1063720568725 l -32.97518326402967 -53.68088382938249 a84.0,84.0 0 0,0 1.2385517351294033,-0.746213562165523 l 32.046269462682616 54.240544001006626" fill="#4dd2ff" stroke="none" /><line stroke="#e1ed5e" stroke-width="0.3" x1="56.762969772571076" x2="54.21961505331055" y1="26.818313649435495" y2="22.513508569990535" /><path d="M 56.25429882871897 25.957352633546506 a86.0,86.0 0 0,1 42.265352541879196,-11.944610805530505" fill="none" id="id12" stroke="none" /><text fill="#e1ed5e" style="font-size:6.75px; font-family:Arial;" text-anchor="middle"><textPath startOffset="22.20632615414155" xlink:href="#id12">December</textPath></text><path d="M 89.94658935756843 81.56283822128135 l -13.286963773038217 -24.367243052575517 a48.75438596491228,48.75438596491228 0 0,0 0.740265593732531,-0.3954242431509092 l 12.86555313277738 24.592346022228178" fill="#ffb310" stroke="none" /><path d="M 91.23893434514133 80.91482961587045 l -13.346535690588798 -29.074192310326012 a52.99122807017544,52.99122807017544 0 0,0 0.8322597419975839,-0.37341068644513314 l 12.84409383012444 29.299623327287676" fill="#fffd17" stroke="none" /><path d="M 91.90106846888425 80.62456947434976 l -11.864224260494135 -28.38330612090868 a51.76315789473684,51.76315789473684 0 0,0 0.8250459004005709,-0.3365569384422357 l 11.373894490505183 28.583323945534495" fill="#ffe815" stroke="none" /><path d="M 92.23578459929587 80.48803036053334 l -11.396596874717767 -28.640376488339946 a51.82456140350877,51.82456140350877 0 0,0 0.8317023647376407,-0.32268759624670923 l 10.90191134498045 28.832306788477208" fill="#ffe915" stroke="none" /><path d="M 92.91201910852362 80.23233633223022 l -10.569796066236709 -29.478094943165466 a52.315789473684205,52.315789473684205 0 0,0 0.8503009723335698,-0.29665331314993343 l 10.060813089839854 29.655669109487608" fill="#fff116" stroke="none" /><path d="M 93.59665428221793 80.00007090966166 l -18.854295724580563 -58.88868009932958 a82.83333333333334,82.83333333333334 0 0,0 1.3616799187521258,-0.4230805790744838 l 17.83783043311771 59.204500813286586" fill="#4be1ff" stroke="none" /><path d="M 94.28887869178378 79.79150937346287 l -9.167852626347102 -32.439945479441164 a54.71052631578947,54.71052631578947 0 0,0 0.908460762285565,-0.24831664363675526 l 8.608093974837814 32.59294866390422" fill="#e5ff1a" stroke="none" /><path d="M 94.63758080256005 79.69619591428918 l -9.423432566261432 -35.68007677050352 a57.90350877192982,57.90350877192982 0 0,0 0.965861163655104,-0.24621951641158482 l 8.807862513921329 35.83699928308397" fill="#b1ff20" stroke="none" /><path d="M 95.692805502759 79.44645832069477 l -7.56907571006387 -36.11894312649835 a57.90350877192982,57.90350877192982 0 0,0 0.9772832627850595,-0.19603382871108288 l 6.946226037811674 36.243880911286645" fill="#b1ff20" stroke="none" /><path d="M 96.04723909329186 79.375362276772 l -11.569338209400144 -60.36626421330771 a82.46491228070175,82.46491228070175 0 0,0 1.3964250068971178,-0.2551877442864365 l 10.528518081400131 60.556467438944885" fill="#4ae6ff" stroke="none" /><path d="M 96.75951476605007 79.25152402106235 l -5.561885474645038 -35.6121502913345 a57.04385964912281,57.04385964912281 0 0,0 0.9714596993619453,-0.1431679070598241 l 4.948056794854444 35.70261268255529" fill="#bfff1e" stroke="none" /><path d="M 97.47563105711357 79.15227682838746 l -4.443479835139265 -36.69686944242909 a57.96491228070175,57.96491228070175 0 0,0 0.9915679294936439,-0.11141421030337727 l 3.811145202135903 36.767919606203066" fill="#b0ff20" stroke="none" /><path d="M 97.83486435360386 79.11191278185805 l -3.811145202135903 -36.767919606203066 a57.96491228070175,57.96491228070175 0 0,0 0.9933388304877687,-0.0943294911627765 l 3.177681244557898 36.828074641881024" fill="#b0ff20" stroke="none" /><path d="M 98.19473922651362 79.07773832637324 l -2.6498272172226986 -30.710454269475534 a51.82456140350877,51.82456140350877 0 0,0 0.8894323981818418,-0.06903707226005236 l 2.1208046296785223 30.75151660392405" fill="#ffe915" stroke="none" /><path d="M 98.55514903715128 79.0497635885617 l -2.5390509610294663 -36.81605872302461 a57.90350877192982,57.90350877192982 0 0,0 0.9949420700123845,-0.0600176227320791 l 1.904946842177459 36.854309615137" fill="#b1ff20" stroke="none" /><path d="M 99.27714615592234 79.0124445844662 l -1.0568038656106167 -30.683560549026023 a51.70175438596491,51.70175438596491 0 0,0 0.8896969975611457,-0.02297824858518474 l 0.5284802328545919 30.69720558975357" fill="#ffe715" stroke="none" /></svg>