<?xml version="1.0" encoding="utf-8" ?>
<svg baseProfile="full" height="200mm" version="1.1" viewBox="0,0,200,200" width="200mm" xmlns="http://www.w3.org/2000/svg" xmlns:ev="http://www.w3.org/2001/xml-events" xmlns:xlink="http://www.w3.org/1999/xlink"><defs /><rect fill="#1a1a1a" height="200" width="200" x="0" y="0" /><text alignment-baseline="middle" fill="#e1ed5e" style="dominant-baseline: central; font-size:9.0px; font-family:Arial;" text-anchor="middle" x="100.0" y="100.0">2024</text><line stroke="#e1ed5e" stroke-width="0.3" x1="100.0" x2="100.0" y1="15.0" y2="10.0" /><path d="M 100.0 14.0 a86.0,86.0 0 0,1 42.35913384403234,11.155469271406648" fill="none" id="id61" stroke="none" /><text fill="#e1ed5e" style="font-size:6.75px; font-family:Arial;" text-anchor="middle"><textPath startOffset="22.145653131862478" xlink:href="#id61">January</textPath></text><path d="M 100.0 79.0 l 0.0 -7.573883937136188 a28.573883937136188,28.573883937136188 0 0,0 0.4905087140376159,0.004210427374431758 l -0.13001578918876114 7.572767907956191" fill="#ff4f07" stroke="none" /><path d="M 100.36049292484886 79.00309439819443 l 0.16005435748548869 -9.322363917931202 a30.323737792092594,30.323737792092594 0 0,0 0.5203938746609554,0.013403500247110607 l -0.3200615462171855 9.318242700334046" fill="#ff6809" stroke="none" /><path d="M 101.08105385017728 79.02784411241856 l 0.47283738143428355 -9.17291888030319 a30.185097493979274,30.185097493979274 0 0,0 0.5172513245067,0.03111655523397643 l -0.6302330580734459 9.16345034724452" fill="#ff6609" stroke="none" /><path d="M 101.80034050326958 79.07731436759882 l 1.798532251155376 -20.901671001857167 a41.97890771532977,41.97890771532977 0 0,0 0.7174403956024811,0.06794235138352184 l -2.15707221014287 20.867716894968463" fill="#fdff18" stroke="none" /><path d="M 102.51750503828377 79.15144685158666 l 1.2398450791406008 -10.26769584774427 a31.342281848898438,31.342281848898438 0 0,0 0.5335981368348035,0.06908496182013227 l -1.4159210378661962 10.24489928972374" fill="#ff760a" stroke="none" /><path d="M 102.87502721639298 79.19773525538626 l 1.7521811135823473 -12.67790968983646 a33.79841915075623,33.79841915075623 0 0,0 0.5740498848201561,0.08436556457510189 l -1.9695561040101854 12.645963051962475" fill="#ff970d" stroke="none" /><path d="M 103.58742460773223 79.30868818359171 l 1.102600300886622 -6.359505530886295 a27.45438130426834,27.45438130426834 0 0,0 0.46367216478425244,0.08449651415616331 l -1.2116071992219284 6.339640842798766" fill="#ff3f05" stroke="none" /><path d="M 104.29559338865022 79.4440306129975 l 3.856991113717515 -18.457098725638705 a39.855791519299046,39.855791519299046 0 0,0 0.6685098899280717,0.14569861904109932 l -4.17326342026472 18.38816864846389" fill="#ffe615" stroke="none" /><path d="M 104.9986988182912 79.60360301121754 l 2.5738414201415014 -10.502151319715596 a31.81294788659596,31.81294788659596 0 0,0 0.529298838022524,0.13454569481832054 l -2.75374555138942 10.456420393062007" fill="#ff7c0b" stroke="none" /><path d="M 105.3480935250658 79.69241777938227 l 4.467815724632392 -16.96502403132988 a38.54347222567051,38.54347222567051 0 0,0 0.6383874529831094,0.17399533909345477 l -4.758384578550194 16.88582819809228" fill="#ffd513" stroke="none" /><path d="M 106.04205211174951 79.88797359093562 l 1.8415280992617273 -6.129848117887517 a27.400489331976082,27.400489331976082 0 0,0 0.44931500787461587,0.13919893798584687 l -1.9464837400079733 6.0973325920950225" fill="#ff3e05" stroke="none" /><path d="M 106.72888874123014 80.10723608172694 l 8.117759638409508 -23.998713939598346 a46.334488198928796,46.334488198928796 0 0,0 0.7512678946182605,0.26132997182920353 l -8.528533305072786 23.85582553520055" fill="#c9ff1d" stroke="none" /><path d="M 107.40779381753099 80.34994680014964 l 3.4298162453823866 -9.097995077559808 a30.723021850658952,30.723021850658952 0 0,0 0.49190152981947743,0.1902780789825809 l -3.58549003769539 9.037777110439189" fill="#ff6d0a" stroke="none" /><path d="M 108.07796709384702 80.6158196554323 l 5.581663345414973 -13.393960095801777 a35.51044908848377,35.51044908848377 0 0,0 0.5606675896517807,0.23931565466664997 l -5.810766010237184 13.296169791475725" fill="#ffae10" stroke="none" /><path d="M 108.73861861582097 80.90454125486305 l 4.152497176778513 -9.07395573768525 a30.978973170252768,30.978973170252768 0 0,0 0.48166592251235096,0.22544397247396966 l -4.307651813162369 9.001335533640747" fill="#ff710a" stroke="none" /><path d="M 109.06512990194946 81.05736502329252 l 7.764858816393356 -16.225568502110182 a38.9878321555209,38.9878321555209 0 0,0 0.6012290403360121,0.29409125159976385 l -8.042248105991435 16.089883500413194" fill="#ffdb14" stroke="none" /><path d="M 109.71004243097381 81.37971332152246 l 5.204135476995566 -9.979615968122461 a32.2550326936055,32.2550326936055 0 0,0 0.48875772144168783,0.26023595727955673 l -5.374682014223813 9.888809543120331" fill="#ff820c" stroke="none" /><path d="M 110.34350942703115 81.72400993836675 l 7.79193316117144 -13.767599287174795 a36.81964008820615,36.81964008820615 0 0,0 0.5473985222003439,0.31604068414637193 l -8.027124151232181 13.631811705752252" fill="#ffbf11" stroke="none" /><line stroke="#e1ed5e" stroke-width="0.3" x1="143.13028292997686" x2="145.6673583964461" y1="26.7553504044142" y2="22.446841604673864" /><path d="M 143.63769802327073 25.89364864446614 a86.0,86.0 0 0,1 29.32050498858742,28.57503671076993" fill="none" id="id62" stroke="none" /><text fill="#e1ed5e" style="font-size:6.75px; font-family:Arial;" text-anchor="middle"><textPath startOffset="20.669276256404974" xlink:href="#id62">February</textPath></text><path d="M 110.96478420261332 82.08984904055464 l 5.690190740650583 -9.294498940416958 a31.89798060277213,31.89798060277213 0 0,0 0.4645498422617935,0.28991345952914027 l -5.848904711702089 9.195449684046272" fill="#ff7d0b" stroke="none" /><path d="M 111.27062007382361 82.28071324371311 l 14.31253487365061 -22.501682070233606 a47.667852378835036,47.667852378835036 0 0,0 0.6866766773356948,0.4450955260567442 l -14.696697183243312 22.252672702472967" fill="#b9ff1f" stroke="none" /><path d="M 111.8722381534696 82.67804972795209 l 7.509324011293699 -10.956328151344463 a34.282735925498756,34.282735925498756 0 0,0 0.48257833464624267,0.33687715650526173 l -7.696297437113702 10.825806179034075" fill="#ff9e0e" stroke="none" /><path d="M 112.16784306229584 82.88440491214696 l 5.660418645619251 -7.962087698711075 a30.769093088185837,30.769093088185837 0 0,0 0.4278647369200646,0.30974107354250213 l -5.796264392913284 7.863745853795499" fill="#ff6e0a" stroke="none" /><path d="M 113.03279911837588 83.53348406188908 l 3.476517174706533 -4.392465881385837 a26.60177901966582,26.60177901966582 0 0,0 0.3556394746167047,0.286477986353721 l -3.551407419678497 4.3321396012387074" fill="#ff3304" stroke="none" /><path d="M 114.13192950727249 84.46653392183569 l 7.70458457255149 -8.4686880897961 a32.4489869157866,32.4489869157866 0 0,0 0.4088112328066581,0.37838957388851896 l -7.848825576672113 8.335180769775205" fill="#ff850c" stroke="none" /><path d="M 116.7966241395341 87.39550010848427 l 5.698378699138099 -4.276169609942464 a28.124404980893935,28.124404980893935 0 0,0 0.2864644488485621,0.3886440419534498 l -5.7709451675704875 4.177719258720139" fill="#ff4906" stroke="none" /><line stroke="#e1ed5e" stroke-width="0.3" x1="172.87174338648825" x2="177.1583165268699" y1="56.24261187166439" y2="53.66864786411523" /><path d="M 173.72905801456457 55.72781907015455 a86.0,86.0 0 0,1 12.242430191666344,42.057860355516425" fill="none" id="id63" stroke="none" /><text fill="#e1ed5e" style="font-size:6.75px; font-family:Arial;" text-anchor="middle"><textPath startOffset="22.145653131862474" xlink:href="#id63">March</textPath></text><path d="M 118.53625476483649 90.13048839642627 l 6.32583848984947 -3.3681526915749287 a28.166636948626913,28.166636948626913 0 0,0 0.22357862397372832,0.42874149141620216 l -6.3827251827981435 3.2590649570542283" fill="#ff4906" stroke="none" /><path d="M 118.70294669586156 90.45014215332178 l 1.9020267761993113 -0.9711884244047111 a23.13562937165531,23.13562937165531 0 0,0 0.1775715595249757,0.3552620695219573 l -1.918418248936024 0.9383944987190033" fill="#ff0000" stroke="none" /><path d="M 119.0197475246899 91.09779779509293 l 5.165368705687103 -2.4176533690173394 a26.703164181260483,26.703164181260483 0 0,0 0.19075664117691496,0.41683768706416136 l -5.20610981171907 2.328626699738494" fill="#ff3405" stroke="none" /><path d="M 119.31412917781788 91.75594674310238 l 14.794596881432863 -6.3149336675733965 a37.08597165576127,37.08597165576127 0 0,0 0.24489837137650552,0.5876669391818846 l -14.900821097345851 6.060034218950234" fill="#ffc312" stroke="none" /><path d="M 119.71291397450082 92.76114493625339 l 10.670663118969145 -3.9184153013704788 a32.36736688387168,32.36736688387168 0 0,0 0.18705229243580812,0.5232185529080176 l -10.736355581448896 3.7346617920815444" fill="#ff840c" stroke="none" /><path d="M 119.94978838288452 93.4421083053983 l 5.011210620218351 -1.6472844661562305 a26.275014501651043,26.275014501651043 0 0,0 0.13717469918310482,0.4296977914321351 l -5.038750035178713 1.5610176410327083" fill="#ff2e04" stroke="none" /><path d="M 120.16314734710363 94.1308016681162 l 11.881818116503451 -3.4586240862414863 a33.37496191200601,33.37496191200601 0 0,0 0.15540257631949228,0.5514689201668965 l -11.939439184897525 3.2541472421715767" fill="#ff910d" stroke="none" /><path d="M 120.26092885502905 94.47779374421319 l 4.018592322057482 -1.0952852072630634 a25.16518114085674,25.16518114085674 0 0,0 0.11002039743738415,0.4177653693663161 l -4.036802200299597 1.0261393335239488" fill="#ff1e03" stroke="none" /><path d="M 120.7213421655516 96.59031103205396 l 20.09972949455661 -3.30740283948518 a41.370027965051584,41.370027965051584 0 0,0 0.10929273436663348,0.7017377559513401 l -20.15354372106151 2.9618769016023987" fill="#fff917" stroke="none" /><path d="M 120.93736805541906 98.37931529534042 l 4.319623164365639 -0.33436615212811543 a25.332544864835583,25.332544864835583 0 0,0 0.029839372074489463,0.4338579211211177 l -4.324726497605195 0.2601648068526636" fill="#ff2003" stroke="none" /><path d="M 120.98066250479742 99.09900007780936 l 12.01522512208977 -0.5159854650743525 a33.02629933664821,33.02629933664821 0 0,0 0.01946241864889564,0.5666270836011671 l -12.022312227735513 0.3096521169090654" fill="#ff8d0d" stroke="none" /><path d="M 120.99303781780057 99.45929381324524 l 17.55812531178929 -0.45223502507339874 a38.563948331238024,38.563948331238024 0 0,0 0.01136455390825598,0.6619282908763963 l -17.563301297296213 0.15075981822793608" fill="#ffd614" stroke="none" /><line stroke="#e1ed5e" stroke-width="0.3" x1="184.99686870605535" x2="189.99668451229388" y1="99.2704041080226" y2="99.22748670261217" /><path d="M 185.99683186730306 99.26182062694052 a86.0,86.0 0 0,1 -10.086455211305974,41.156179273409016" fill="none" id="id64" stroke="none" /><text fill="#e1ed5e" style="font-size:6.75px; font-family:Arial;" text-anchor="middle"><textPath startOffset="21.40746469413373" xlink:href="#id64">April</textPath></text><path d="M 120.98066250479742 100.90099992219065 l 10.4366072924849 0.44819282309665065 a31.446226523689038,31.446226523689038 0 0,0 -0.027790094374677846,0.5391204066853739 l -10.42737560865365 -0.6272850231587551" fill="#ff770b" stroke="none" /><path d="M 120.9064616781168 101.97986365728391 l 62.7193850343504 5.939590971851738 a84.0,84.0 0 0,0 -0.14827043007333573,1.4343819108682743 l -62.6081822117954 -7.015377405002943" fill="#4dd2ff" stroke="none" /><path d="M 120.77682067341334 103.0534771498775 l 7.033355192809619 1.033661006455041 a28.108905706540753,28.108905706540753 0 0,0 -0.07425905458214371,0.47679640026877645 l -7.0145746460892076 -1.1542455886552683" fill="#ff4806" stroke="none" /><path d="M 120.592083275326 104.11899336999214 l 8.37518811981229 1.6752721847856633 a29.541095534845716,29.541095534845716 0 0,0 -0.10373466711884134,0.4964079345358625 l -8.345195741869084 -1.818796570606935" fill="#ff5d08" stroke="none" /><path d="M 120.51834098615036 104.47187691870673 l 18.72632692810519 4.081315795388845 a40.16591920154022,40.16591920154022 0 0,0 -0.15260971846835103,0.6724265779543388 l -18.653506348079176 -4.402176707282201" fill="#ffea16" stroke="none" /><path d="M 119.94978838288452 106.5578916946017 l 10.94004675579221 3.5962106655685013 a32.51596084441365,32.51596084441365 0 0,0 -0.17886035757675856,0.5287688657729059 l -10.876700976643088 -3.783481205815568" fill="#ff860c" stroke="none" /><path d="M 119.83427380445688 106.89939002012753 l 8.289376537967387 2.883475458843376 a29.776570748872032,29.776570748872032 0 0,0 -0.1720799791789335,0.4813383280044011 l -8.23865638874451 -3.0253487432286987" fill="#ff6008" stroke="none" /><path d="M 119.0197475246899 108.90220220490707 l 10.353532620831334 4.845976047058214 a32.431496908947686,32.431496908947686 0 0,0 -0.24033398164006,0.502205587338287 l -10.268819381231362 -5.022994136461604" fill="#ff850c" stroke="none" /><line stroke="#e1ed5e" stroke-width="0.3" x1="174.33088141563837" x2="178.70328620479359" y1="141.23008692659167" y2="143.65538615756765" /><path d="M 175.20536237346943 141.71514677278685 a86.0,86.0 0 0,1 -30.301960400862466,31.631185727798858" fill="none" id="id65" stroke="none" /><text fill="#e1ed5e" style="font-size:6.75px; font-family:Arial;" text-anchor="middle"><textPath startOffset="22.145653131862474" xlink:href="#id65">May</textPath></text><path d="M 118.36410011445183 110.18625677009912 l 10.29095565635737 5.7082196280810855 a32.76807289421356,32.76807289421356 0 0,0 -0.27707221135998505,0.48956004892656907 l -10.191450079976006 -5.884036447106777" fill="#ff890c" stroke="none" /><line stroke="#e1ed5e" stroke-width="0.3" x1="143.1302829299769" x2="145.66735839644613" y1="173.24464959558577" y2="177.55315839532614" /><path d="M 143.63769802327073 174.10635135553383 a86.0,86.0 0 0,1 -40.68552437913181,11.842963189579606" fill="none" id="id66" stroke="none" /><text fill="#e1ed5e" style="font-size:6.75px; font-family:Arial;" text-anchor="middle"><textPath startOffset="21.407464694133747" xlink:href="#id66">June</textPath></text><line stroke="#e1ed5e" stroke-width="0.3" x1="101.45913802915013" x2="101.54496967792366" y1="184.9874750549273" y2="189.98673829345242" /><path d="M 101.47630435890484 185.9873277026323 a86.0,86.0 0 0,1 -42.54439059252881,-10.42667462771756" fill="none" id="id67" stroke="none" /><text fill="#e1ed5e" style="font-size:6.75px; font-family:Arial;" text-anchor="middle"><textPath startOffset="22.145653131862474" xlink:href="#id67">July</textPath></text><line stroke="#e1ed5e" stroke-width="0.3" x1="58.13341422392154" x2="55.67067388415222" y1="173.97424548756322" y2="178.32567169271397" /><path d="M 57.64086615596768 174.84453072859336 a86.0,86.0 0 0,1 -31.369924170532247,-30.572349798747897" fill="none" id="id68" stroke="none" /><text fill="#e1ed5e" style="font-size:6.75px; font-family:Arial;" text-anchor="middle"><textPath startOffset="22.145653131862474" xlink:href="#id68">August</textPath></text><line stroke="#e1ed5e" stroke-width="0.3" x1="26.387840678322732" x2="22.057713659400548" y1="142.50000000000003" y2="145.00000000000006" /><path d="M 25.521815274538298 143.00000000000003 a86.0,86.0 0 0,1 -11.493303480769221,-40.785679425670985" fill="none" id="id69" stroke="none" /><text fill="#e1ed5e" style="font-size:6.75px; font-family:Arial;" text-anchor="middle"><textPath startOffset="21.40746469413373" xlink:href="#id69">September</textPath></text><line stroke="#e1ed5e" stroke-width="0.3" x1="15.003131293944662" x2="10.003315487706104" y1="100.72959589197737" y2="100.7725132973878" /><path d="M 14.003168132696942 100.73817937305945 a86.0,86.0 0 0,1 10.791469493833604,-42.45332614584628" fill="none" id="id70" stroke="none" /><text fill="#e1ed5e" style="font-size:6.75px; font-family:Arial;" text-anchor="middle"><textPath startOffset="22.145653131862435" xlink:href="#id70">October</textPath></text><line stroke="#e1ed5e" stroke-width="0.3" x1="26.387840678322718" x2="22.05771365940052" y1="57.49999999999999" y2="54.99999999999999" /><path d="M 25.521815274538284 56.99999999999999 a86.0,86.0 0 0,1 29.574782752854787,-30.34633250058573" fill="none" id="id71" stroke="none" /><text fill="#e1ed5e" style="font-size:6.75px; font-family:Arial;" text-anchor="middle"><textPath startOffset="21.40746469413373" xlink:href="#id71">November</textPath></text><line stroke="#e1ed5e" stroke-width="0.3" x1="56.869717070023135" x2="54.33264160355391" y1="26.7553504044142" y2="22.446841604673864" /><path d="M 56.362301976729285 25.89364864446614 a86.0,86.0 0 0,1 42.16139366436587,-11.88097634709845" fill="none" id="id72" stroke="none" /><text fill="#e1ed5e" style="font-size:6.75px; font-family:Arial;" text-anchor="middle"><textPath startOffset="22.145653131862474" xlink:href="#id72">December</textPath></text></svg>