<?xml version="1.0" encoding="utf-8" ?>
<svg baseProfile="full" height="200mm" version="1.1" viewBox="0,0,200,200" width="200mm" xmlns="http://www.w3.org/2000/svg" xmlns:ev="http://www.w3.org/2001/xml-events" xmlns:xlink="http://www.w3.org/1999/xlink"><defs /><rect fill="#1a1a1a" height="200" width="200" x="0" y="0" /><text alignment-baseline="middle" fill="#e1ed5e" style="dominant-baseline: central; font-size:9.0px; font-family:Arial;" text-anchor="middle" x="100.0" y="100.0">2022</text><line stroke="#e1ed5e" stroke-width="0.3" x1="100.0" x2="100.0" y1="15.0" y2="10.0" /><path d="M 100.0 14.0 a86.0,86.0 0 0,1 42.46469731375804,11.215312516191453" fill="none" id="id37" stroke="none" /><text fill="#e1ed5e" style="font-size:6.75px; font-family:Arial;" text-anchor="middle"><textPath startOffset="22.20632615414155" xlink:href="#id37">January</textPath></text><path d="M 101.44485096284872 79.0497635885617 l 2.8867993339729607 -41.85838544888634 a62.957812654881884,62.957812654881884 0 0,0 1.0805053970051037,0.08386801439086147 l -3.6068949203404057 41.80249217230701" fill="#78ff26" stroke="none" /><path d="M 103.2404852339499 79.25152402106235 l 6.525019224722772 -41.778991376931465 a63.28545845035519,63.28545845035519 0 0,0 1.0748607002549246,0.17736122530392917 l -7.243209131116572 41.660483888687914" fill="#73ff27" stroke="none" /><path d="M 104.307194497241 79.44645832069477 l 8.44554526239786 -40.301376375351644 a62.17679167355031,62.17679167355031 0 0,0 1.0456279223002207,0.22853376423348343 l -9.138015908851608 40.15002911302229" fill="#85ff25" stroke="none" /><path d="M 105.01212808612495 79.60689891045804 l 10.012796094154417 -40.73957397503976 a62.95198414009582,62.95198414009582 0 0,0 1.05007240399604,0.2676868366159765 l -10.712577386835482 40.561184142254916" fill="#78ff26" stroke="none" /><path d="M 107.4271985657038 80.35727306442388 l 11.884008516199316 -31.42966114595106 a54.601387741615724,54.601387741615724 0 0,0 0.8762660420621576,0.33997761071035787 l -12.423257723261141 31.220440831350153" fill="#fff917" stroke="none" /><path d="M 107.76421540070413 80.48803036053334 l 15.538692444098778 -39.04972744300333 a63.02775483231456,63.02775483231456 0 0,0 1.0045907717144829,0.40979779955442175 l -16.208567085401647 38.77646875726533" fill="#77ff27" stroke="none" /><path d="M 108.43124777332544 80.76684994638697 l 16.882664796239126 -38.51230969136224 a63.05023624648934,63.05023624648934 0 0,0 0.9902426356660067,0.44429300574333874 l -17.543089550371914 38.21599635510237" fill="#77ff27" stroke="none" /><path d="M 109.73455568895987 81.39251694778311 l 19.463836416304044 -37.20488308041079 a62.988620518751034,62.988620518751034 0 0,0 0.9563920792739156,0.5108715267929247 l -20.10137354210627 36.86433282711611" fill="#78ff26" stroke="none" /><line stroke="#e1ed5e" stroke-width="0.3" x1="143.23703022742887" x2="145.7803849466894" y1="26.81831364943548" y2="22.513508569990506" /><path d="M 143.74570117128098 25.957352633546492 a86.0,86.0 0 0,1 28.547481713284135,27.462654790039103" fill="none" id="id38" stroke="none" /><text fill="#e1ed5e" style="font-size:6.75px; font-family:Arial;" text-anchor="middle"><textPath startOffset="19.985693538727396" xlink:href="#id38">February</textPath></text><path d="M 110.68208982089419 81.91981866633111 l 21.19638629961581 -35.876360744125265 a62.67013381794152,62.67013381794152 0 0,0 0.9240500354881701,0.5567298071152061 l -21.810798401321616 35.506184327551445" fill="#7dff26" stroke="none" /><path d="M 111.2981086023043 82.29822771554956 l 22.492438113531744 -35.24094444681011 a62.80710391541385,62.80710391541385 0 0,0 0.90631540482684,0.5894927501024948 l -23.095720544142864 34.84855277254809" fill="#7bff26" stroke="none" /><path d="M 111.60114157652 82.49532879139004 l 23.090890728056156 -34.841265184336336 a62.79836114323476,62.79836114323476 0 0,0 0.8959092474988459,0.6049219231639267 l -23.687204669961545 34.43863134887374" fill="#7bff26" stroke="none" /><path d="M 113.6212207817346 84.01681056812373 l 27.026590333106757 -31.713098254086987 a62.66721956054849,62.66721956054849 0 0,0 0.8149907754071711,0.7067519693806384 l -27.56847490716069 31.243181291286678" fill="#7dff26" stroke="none" /><path d="M 114.16331599549186 84.49514656593476 l 28.267573326565035 -30.945054216441093 a62.91243350404758,62.91243350404758 0 0,0 0.79327220967394,0.737260064963345 l -28.79605342003382 30.45388956540311" fill="#79ff26" stroke="none" /><path d="M 115.19652480421416 85.50635884689758 l 33.407750911071695 -31.86254486966846 a67.16600033041468,67.16600033041468 0 0,0 0.790744292105771,0.8435108777670964 l -33.95126252514793 31.28276457502331" fill="#39ff2e" stroke="none" /><path d="M 116.60985879189232 87.15038557335679 l 33.136956417228646 -25.63520368046178 a62.895364282174135,62.895364282174135 0 0,0 0.6550823531847815,0.8620115889008564 l -33.57331471063754 25.06100731567989" fill="#79ff26" stroke="none" /><path d="M 117.2510076193507 88.02491185347247 l 34.797388513056184 -24.15521480875077 a63.35956385263506,63.35956385263506 0 0,0 0.6142122412521995,0.9012806742278118 l -35.20802521997712 23.552656111252553" fill="#72ff27" stroke="none" /><line stroke="#e1ed5e" stroke-width="0.3" x1="172.23445277983987" x2="176.4835382374775" y1="55.19839476539836" y2="52.563006222186495" /><path d="M 173.08426987136738 54.67131705675599 a86.0,86.0 0 0,1 12.851231095245387,41.99856678651699" fill="none" id="id39" stroke="none" /><text fill="#e1ed5e" style="font-size:6.75px; font-family:Arial;" text-anchor="middle"><textPath startOffset="22.20632615414155" xlink:href="#id39">March</textPath></text><path d="M 118.21658344932153 89.55222093294921 l 36.269810521701196 -20.801868154296614 a62.81168346274575,62.81168346274575 0 0,0 0.5298385601420886,0.9425236775174852 l -36.622506723135714 20.174460966844332" fill="#7bff26" stroke="none" /><path d="M 119.47837535516314 92.15188598940014 l 39.001416140679744 -15.714224357308591 a63.048154634065746,63.048154634065746 0 0,0 0.3969225100323548,1.010124493624566 l -39.266132200593795 15.04055085878824" fill="#77ff27" stroke="none" /><path d="M 119.7369772167798 92.82701384747503 l 39.76806897923176 -14.452862004530813 a63.3129357343466,63.3129357343466 0 0,0 0.36343711179342864,1.027485656007835 l -40.010959171835 13.766178722096363" fill="#73ff27" stroke="none" /><path d="M 120.18372546131832 94.20196356495316 l 39.779912111091235 -11.427294740264639 a62.38869981827193,62.38869981827193 0 0,0 0.287621500455841,1.0347275686234383 l -39.97072038211344 10.740855868222248" fill="#81ff25" stroke="none" /><path d="M 120.37134235888165 94.90015583598534 l 40.70701046879516 -10.190757492387704 a62.96322484718321,62.96322484718321 0 0,0 0.25415315508781505,1.053628908269029 l -40.87639642414379 9.488543352459269" fill="#78ff26" stroke="none" /><path d="M 120.6074358757038 95.95851677861258 l 41.51787221282137 -8.142390200697125 a63.30877250949942,63.30877250949942 0 0,0 0.20052081779165498,1.0711902267409803 l -41.65187875452289 7.426521896493583" fill="#73ff27" stroke="none" /><path d="M 120.83666639777658 97.38593545837742 l 41.75002880205282 -5.237750982797004 a63.07729720799603,63.07729720799603 0 0,0 0.1258832028321343,1.0784904062892982 l -41.83400235788854 4.518316838182853" fill="#76ff27" stroke="none" /><path d="M 120.98425023603335 99.18683210126433 l 41.581888282025 -1.6113540555141248 a62.613097637535105,62.613097637535105 0 0,0 0.03246431134076241,1.0773324446968904 l -41.60346428782141 0.8953514633922354" fill="#7eff26" stroke="none" /><line stroke="#e1ed5e" stroke-width="0.3" x1="184.98032266829074" x2="189.97916517819016" y1="98.17113171792111" y2="98.06355123074" /><path d="M 185.9800911702706 98.14961562048488 a86.0,86.0 0 0,1 -9.607161424134198,41.387399972396054" fill="none" id="id40" stroke="none" /><text fill="#e1ed5e" style="font-size:6.75px; font-family:Arial;" text-anchor="middle"><textPath startOffset="21.466115282336823" xlink:href="#id40">April</textPath></text><path d="M 120.99513854157772 99.54816195383933 l 41.99554928050932 -0.9037895556998518 a63.005273418139765,63.005273418139765 0 0,0 0.014002150599468756,1.0844819948402125 l -42.004884438226505 0.18077130279917672" fill="#78ff26" stroke="none" /><path d="M 120.99824983174949 100.27111621757518 l 41.58465227872692 0.5369149203064044 a62.588118288452,62.588118288452 0 0,0 -0.023181260033853245,1.0771420647609296 l -41.56924895600806 -1.2526468008574487" fill="#7eff26" stroke="none" /><path d="M 120.9764740272857 100.99374915477107 l 41.65048206198898 1.9731691461143377 a62.69719477944821,62.69719477944821 0 0,0 -0.0603494807432379,1.0775805191585666 l -41.61034623035821 -2.6898213816083274" fill="#7cff26" stroke="none" /><path d="M 120.8583938346157 102.4346265915055 l 41.68191455745107 4.865182735116413 a62.96489013712208,62.96489013712208 0 0,0 -0.1349202393623101,1.0754470569252574 l -41.591992808841916 -5.581947546329065" fill="#78ff26" stroke="none" /><path d="M 120.81339534386255 102.79330883721812 l 49.660836938018825 6.664845038054826 a71.10607632578886,71.10607632578886 0 0,0 -0.1732480892235697,1.2116967325185792 l -49.53875479777866 -7.518687242553814" fill="#35ff68" stroke="none" /><path d="M 120.49622156327973 104.57218783832717 l 53.09499975345718 11.844149488687279 a75.40002643317362,75.40002643317362 0 0,0 -0.29348359473661756,1.2643196449460534 l -52.88325559279001 -12.756337790981897" fill="#3dffaf" stroke="none" /><path d="M 120.41448212921028 104.9243191809786 l 40.885894121024414 9.86237080996231 a63.05856269618371,63.05856269618371 0 0,0 -0.2636108734066891,1.0529944011983576 l -40.710071933322666 -10.564693050558065" fill="#77ff27" stroke="none" /><path d="M 119.9155931802556 106.66101706037122 l 19.97218465600323 6.679944781078043 a42.05967288947629,42.05967288947629 0 0,0 -0.23555253234908713,0.6846259187027579 l -19.854241292710913 -7.022743402870101" fill="#ff0100" stroke="none" /><path d="M 119.67450827220406 107.3425965602758 l 47.134960227744905 17.59093503373259 a71.31049066578555,71.31049066578555 0 0,0 -0.43908830324190057,1.146321004111156 l -46.8251776449095 -18.399679604676887" fill="#36ff6c" stroke="none" /><path d="M 119.54520255179757 107.68017299344265 l 19.84485475678796 7.797919574277191 a42.32195605484884,42.32195605484884 0 0,0 -0.2722659820249333,0.6757418390152135 l -19.707686160505634 -8.138360781135217" fill="#ff0601" stroke="none" /><line stroke="#e1ed5e" stroke-width="0.3" x1="174.80103733775053" x2="179.2010983576182" y1="140.37084112569926" y2="142.7455964860345" /><path d="M 175.68104954172406 140.8457921977663 a86.0,86.0 0 0,1 -30.038265399797805,32.042727171017184" fill="none" id="id41" stroke="none" /><text fill="#e1ed5e" style="font-size:6.75px; font-family:Arial;" text-anchor="middle"><textPath startOffset="22.206326154141568" xlink:href="#id41">May</textPath></text><path d="M 118.30583269289576 110.29060199501025 l 36.72985338209721 20.647643231052207 a63.1355823558566,63.1355823558566 0 0,0 -0.5407051646884693,0.9427650308083121 l -36.36899622125637 -21.276828107718835" fill="#76ff27" stroke="none" /><path d="M 117.75023020441432 111.22182372390056 l 35.45811556756784 22.4168767333499 a62.94990252767222,62.94990252767222 0 0,0 -0.5869183221812833,0.9109102697718819 l -35.0669923820095 -23.023908603043232" fill="#78ff26" stroke="none" /><path d="M 117.35343817320211 111.8261652097733 l 34.1329199078985 23.26118581769682 a62.30543532132827,62.30543532132827 0 0,0 -0.6115993293336575,0.8810544491385681 l -33.7274596714027 -23.845281529022408" fill="#83ff25" stroke="none" /><path d="M 116.93607887273984 112.41649034213515 l 33.70282493639687 24.70883629380175 a62.79003469354039,62.79003469354039 0 0,0 -0.6465541698239238,0.8661649688515204 l -33.272509499877856 -25.285314142162584" fill="#7bff26" stroke="none" /><path d="M 115.80600337817218 113.82643327865902 l 31.551738697866213 27.600146570522835 a62.919927308772515,62.919927308772515 0 0,0 -0.720107033782539,0.8090478862569346 l -31.071972814435334 -28.139168626520636" fill="#79ff26" stroke="none" /><path d="M 115.56566222782051 114.09645910891815 l 30.914593245900292 27.996643713673155 a62.70760284156617,62.70760284156617 0 0,0 -0.7314501220009193,0.7938446442784104 l -30.42809671590365 -28.524639612752903" fill="#7cff26" stroke="none" /><path d="M 114.0293411484842 115.62618273729858 l 42.088023445452606 46.878548211895726 a84.0,84.0 0 0,0 -1.0842305883736492,0.9567074329108447 l -41.27485050417237 -47.59607878657886" fill="#4dd2ff" stroke="none" /><path d="M 112.04921762599082 117.19931262002967 l 23.131392476051307 33.018247564392674 a61.314587807698665,61.314587807698665 0 0,0 -0.8696251357480356,0.5981360980328463 l -22.55961045568039 -33.41152445179061" fill="#92ff23" stroke="none" /><path d="M 111.7513745106137 117.40417183066458 l 21.693196542480873 32.12833697374849 a59.76628448703123,59.76628448703123 0 0,0 -0.8575758894403663,0.568354537337113 l -21.13694595430054 -32.49698953217692" fill="#acff21" stroke="none" /><line stroke="#e1ed5e" stroke-width="0.3" x1="143.8653032363475" x2="146.44561519142675" y1="172.8068346515853" y2="177.08958963109032" /><path d="M 144.38136562736335 173.6633856474863 a86.0,86.0 0 0,1 -40.68145358897372,12.25698825130547" fill="none" id="id42" stroke="none" /><text fill="#e1ed5e" style="font-size:6.75px; font-family:Arial;" text-anchor="middle"><textPath startOffset="21.466115282336833" xlink:href="#id42">June</textPath></text><path d="M 110.21172684928248 118.3499491758327 l 15.550909590503244 27.94418660383126 a52.97981166363786,52.97981166363786 0 0,0 -0.800694459692093,0.43660246078091797 l -15.0675923189425 -28.207729716371947" fill="#ffdb14" stroke="none" /><path d="M 109.89434966115114 118.52300852407294 l 20.05599224425692 37.54641063047799 a63.567308772509506,63.567308772509506 0 0,0 -0.9695803477020046,0.5072386127204771 l -19.406720994028422 -37.886078662143184" fill="#6fff28" stroke="none" /><path d="M 107.59598834532513 119.57807347666477 l 15.154429693906142 39.05937246821113 a62.89619692714356,62.89619692714356 0 0,0 -1.0127179610473016,0.3829232780368214 l -14.479841512098565 -39.31444399635458" fill="#79ff26" stroke="none" /><path d="M 107.2578585660854 119.70592522655815 l 14.68876424075456 39.881693362202185 a63.500697174954574,63.500697174954574 0 0,0 -1.0289545302386525,0.3689464860949078 l -14.000090149886173 -40.128627389337055" fill="#70ff27" stroke="none" /><path d="M 105.88484417918355 120.15858648285463 l 14.150459286168967 48.47252511823106 a71.49575417148522,71.49575417148522 0 0,0 -1.1843402137673724,0.3347063744653011 l -13.313987904296988 -48.70892028603488" fill="#36ff6f" stroke="none" /><path d="M 105.18746579009965 120.34920634021253 l 12.447655396704086 48.829219963786095 a71.39084090533619,71.39084090533619 0 0,0 -1.193405723773251,0.2933100914864612 l -11.605296388187623 -49.03625131358659" fill="#36ff6d" stroke="none" /><path d="M 102.34483914955558 120.86867818915974 l 2.4199762718829967 21.53738607311306 a42.67291590946638,42.67291590946638 0 0,0 -0.7306566461349664,0.0757355488466727 l -2.0488870291424277 -21.57585099041549" fill="#ff0e01" stroke="none" /><line stroke="#e1ed5e" stroke-width="0.3" x1="102.19456741930631" x2="102.32365962044197" y1="184.97166512339345" y2="189.96999836594603" /><path d="M 102.22038585953345 185.97133177190398 a86.0,86.0 0 0,1 -42.740103519485714,-10.115201625700543" fill="none" id="id43" stroke="none" /><text fill="#e1ed5e" style="font-size:6.75px; font-family:Arial;" text-anchor="middle"><textPath startOffset="22.20632615414155" xlink:href="#id43">July</textPath></text><path d="M 100.54218724476979 120.99299961872073 l 0.5832297353618184 22.582127724667842 a43.589658020816124,43.589658020816124 0 0,0 -0.7502409291674444,0.01291607797277089 l -0.19442911630170606 -22.588821279919774" fill="#ff2103" stroke="none" /><path d="M 99.81925306533755 120.99922214144158 l -0.364122807062825 42.30387489866583 a63.30544192962168,63.30544192962168 0 0,0 -1.0895780267868649,-0.01875807384570998 l 1.0922605237423577 -42.29133934754096" fill="#73ff27" stroke="none" /><path d="M 97.65516085044442 120.86867818915974 l -3.841290469755027 34.186845890728634 a55.40197587972906,55.40197587972906 0 0,0 -0.9467738024763399,-0.11464112235355317 l 4.429191695282756 -34.11565923964973" fill="#f7ff19" stroke="none" /><path d="M 97.2962882734958 120.8252237178851 l -5.515625522829696 42.48386924205145 a63.84041632248472,63.84041632248472 0 0,0 -1.0885441815148253,-0.1508623047207763 l 6.246098295531352 -42.38263237183806" fill="#6bff28" stroke="none" /><path d="M 95.16358092515715 120.4354850818985 l -9.759483000912526 41.237073583965696 a63.376216752023794,63.376216752023794 0 0,0 -1.0594291769619175,-0.26038191591342424 l 10.467865462617654 -41.06297040973824" fill="#72ff27" stroke="none" /><path d="M 93.08242187328487 119.8279376855182 l -13.917806055201941 39.89277549550634 a63.25090368412358,63.25090368412358 0 0,0 -1.0249069188666864,-0.3674951566640338 l 14.602432534698355 -39.64729279780235" fill="#74ff27" stroke="none" /><path d="M 92.7421414339146 119.70592522655815 l -14.55682061666533 39.52345116627777 a63.11892945646787,63.11892945646787 0 0,0 -1.016304270617274,-0.38427931344787575 l 15.234995108042888 -39.26702360272326" fill="#76ff27" stroke="none" /><path d="M 90.10565033884886 118.52300852407294 l -10.1103809268405 18.92743621390301 a42.458509829836444,42.458509829836444 0 0,0 -0.6416839267638655,-0.34989723992395577 l 10.434687665473007 -18.75059832221929" fill="#ff0901" stroke="none" /><line stroke="#e1ed5e" stroke-width="0.3" x1="58.666819895761336" x2="56.23545636021788" y1="174.27360380694188" y2="178.64263932499728" /><path d="M 58.180547188652646 175.14741091055294 a86.0,86.0 0 0,1 -31.652253787137756,-30.449443065178592" fill="none" id="id44" stroke="none" /><text fill="#e1ed5e" style="font-size:6.75px; font-family:Arial;" text-anchor="middle"><textPath startOffset="22.20632615414155" xlink:href="#id44">August</textPath></text><path d="M 88.24862548938628 117.40417183066458 l -23.98724811636516 35.5259027431168 a63.86581199405253,63.86581199405253 0 0,0 -0.9058091623998755,-0.6230238015075455 l 24.595214163387926 -35.10773815224415" fill="#6aff28" stroke="none" /><path d="M 84.19399662182784 113.82643327865904 l -31.9271345421824 27.928527216176246 a63.41868164546506,63.41868164546506 0 0,0 -0.7116708268047623,-0.8278339514288712 l 32.40314787855794 -27.374816165585845" fill="#71ff27" stroke="none" /><line stroke="#e1ed5e" stroke-width="0.3" x1="26.63291911575756" x2="22.317208475507996" y1="142.92168965132927" y2="145.44649492493687" /><path d="M 25.769776987707644 143.4266507060508 a86.0,86.0 0 0,1 -11.730757126820373,-40.83630448921669" fill="none" id="id45" stroke="none" /><text fill="#e1ed5e" style="font-size:6.75px; font-family:Arial;" text-anchor="middle"><textPath startOffset="21.46611528233685" xlink:href="#id45">September</textPath></text><path d="M 81.51974371655577 109.97397251340807 l -36.75668935369127 19.837939673273254 a62.76838592433505,62.76838592433505 0 0,0 -0.5049791126042272,-0.9552301746998489 l 37.09272097452038 -19.20229448348728" fill="#7bff26" stroke="none" /><path d="M 80.45479744820244 107.68017299344265 l -39.055015144902306 15.346439709666058 a62.96197587972907,62.96197587972907 0 0,0 -0.3876830309211653,-1.0121180591721757 l 39.31339245541698 -14.671898083660723" fill="#78ff26" stroke="none" /><path d="M 79.67330655649465 105.27499134158121 l -41.93793451232205 10.883336340519378 a64.32709730712044,64.32709730712044 0 0,0 -0.2689138727526659,-1.074177247522959 l 42.11905969936978 -10.159831253599027" fill="#63ff29" stroke="none" /><path d="M 79.18660465613746 102.79330883721812 l -41.6175754391671 5.585380921143047 a62.99070213117463,62.99070213117463 0 0,0 -0.1349755489230574,-1.075887928543935 l 41.707552497337005 -4.868175238311704" fill="#78ff26" stroke="none" /><path d="M 79.10278846688536 102.07522291339032 l -20.969020883831448 2.0823540279778774 a42.072162564017844,42.072162564017844 0 0,0 -0.06536291853083806,-0.7212743593836524 l 21.00175839863936 -1.721098280045659" fill="#ff0100" stroke="none" /><line stroke="#e1ed5e" stroke-width="0.3" x1="15.007084014347285" x2="10.007500721073583" y1="101.09737516637583" y2="101.16192664675087" /><path d="M 14.007167355692545 101.11028546245083 a86.0,86.0 0 0,1 10.666146001902534,-42.60595125391555" fill="none" id="id46" stroke="none" /><text fill="#e1ed5e" style="font-size:6.75px; font-family:Arial;" text-anchor="middle"><textPath startOffset="22.20632615414155" xlink:href="#id46">October</textPath></text><path d="M 79.00175016825051 100.2711162175752 l -42.50631344100996 0.5488148305468818 a63.50985626961837,63.50985626961837 0 0,0 -0.004704878835329492,-1.0932481467673296 l 42.509462617134794 0.18294279442412315" fill="#70ff27" stroke="none" /><path d="M 79.12142395522702 97.74499172005258 l -41.72804004893506 -4.506872289304602 a62.970718651908136,62.970718651908136 0 0,0 0.1256705042767519,-1.076668134959573 l 41.64427919165472 5.224484162589037" fill="#78ff26" stroke="none" /><path d="M 79.21141760316559 97.0276538004421 l -20.855485021167855 -2.981911919691289 a42.06758301668594,42.06758301668594 0 0,0 0.108662783614672,-0.7159519766515671 l 20.80106634411388 3.340463008734948" fill="#ff0100" stroke="none" /><path d="M 79.26566170972629 96.67025291283419 l -41.5667818917375 -6.675248999472285 a63.09936229968611,63.09936229968611 0 0,0 0.1814501442161459,-1.0709290224674568 l 41.44571988600113 7.3897638102555705" fill="#76ff27" stroke="none" /><path d="M 79.62865764111835 94.90015583598534 l -40.668239964256195 -10.181051527614963 a62.923257888650255,62.923257888650255 0 0,0 0.27207917271238397,-1.0484320405404466 l 40.48696445967351 10.879579993704274" fill="#79ff26" stroke="none" /><path d="M 80.38941819471856 92.48833698450439 l -39.18098994223552 -15.007937856302297 a62.95698000991244,62.95698000991244 0 0,0 0.3963485160609457,-1.0086637415758368 l 38.91684787629288 15.680150602773896" fill="#78ff26" stroke="none" /><path d="M 81.26839172434947 90.50648371742162 l -52.82814858785596 -26.774256722484402 a80.22562035354369,80.22562035354369 0 0,0 0.6348924438874723,-1.2264101193844739 l 52.35944671080837 27.67963956412921" fill="#46fff8" stroke="none" /><line stroke="#e1ed5e" stroke-width="0.3" x1="26.266209847984243" x2="21.928928074336255" y1="57.711370442889674" y2="55.22380399835377" /><path d="M 25.398753493254645 57.213857153982495 a86.0,86.0 0 0,1 29.58750427330803,-30.492523968695096" fill="none" id="id47" stroke="none" /><text fill="#e1ed5e" style="font-size:6.75px; font-family:Arial;" text-anchor="middle"><textPath startOffset="21.46611528233685" xlink:href="#id47">November</textPath></text><path d="M 82.54541684631803 88.32363383020206 l -49.04388947539069 -32.80825482131105 a80.00580208161243,80.00580208161243 0 0,0 0.7755820908745359,-1.1380710165550072 l 48.47188291884741 33.647603861136474" fill="#46fff4" stroke="none" /><path d="M 85.31137513191541 84.99185889309783 l -23.559845701184575 -24.07233433461149 a54.682986948620524,54.682986948620524 0 0,0 0.6783730661637417,-0.6525943521752366 l 23.14198939140841 24.47431177354904" fill="#fffa17" stroke="none" /><path d="M 86.65592168130627 83.78471172551755 l -21.12839589781818 -25.674536830360275 a54.25042788699818,54.25042788699818 0 0,0 0.7261719478788969,-0.5871805466441171 l 20.68332055137478 26.034423474268525" fill="#fff316" stroke="none" /><path d="M 87.80319425747018 82.90503203632743 l -19.511584585137143 -27.347317030747675 a54.59431025937552,54.59431025937552 0 0,0 0.7696988201766378,-0.5392232117448797 l 19.037954625376845 27.679125085256498" fill="#fff917" stroke="none" /><path d="M 88.09926311788651 82.69761687909137 l -19.31210607934048 -28.077711621251787 a55.07807698661821,55.07807698661821 0 0,0 0.7857682526812393,-0.53055423180428 l 18.825933132252704 28.405977765354734" fill="#fcff18" stroke="none" /><path d="M 89.00827224532344 82.1063720568725 l -11.008143617703528 -17.920351616777893 a42.031362960515445,42.031362960515445 0 0,0 0.6197383038642874,-0.37338539377902685 l 10.698043247621593 18.10718362001554" fill="#ff0000" stroke="none" /><line stroke="#e1ed5e" stroke-width="0.3" x1="56.762969772571076" x2="54.21961505331055" y1="26.818313649435495" y2="22.513508569990535" /><path d="M 56.25429882871897 25.957352633546506 a86.0,86.0 0 0,1 42.265352541879196,-11.944610805530505" fill="none" id="id48" stroke="none" /><text fill="#e1ed5e" style="font-size:6.75px; font-family:Arial;" text-anchor="middle"><textPath startOffset="22.20632615414155" xlink:href="#id48">December</textPath></text><path d="M 89.3179101791058 81.91981866633112 l -17.106026513250626 -28.953141795640587 a54.62886502560714,54.62886502560714 0 0,0 0.8137184515105194,-0.4713582490066794 l 16.605111329274788 29.243304202037315" fill="#fffa17" stroke="none" /><path d="M 89.63071344664047 81.73862282372117 l -10.465356203105499 -18.43056568314248 a42.19456137452502,42.19456137452502 0 0,0 0.634678357637313,-0.35319781887348917 l 10.146553756396141 18.607978899576153" fill="#ff0400" stroke="none" /><path d="M 89.94658935756843 81.56283822128135 l -20.120108462318857 -36.89869119236704 a63.02775483231456,63.02775483231456 0 0,0 0.9569862778325255,-0.5111889270845396 l 19.481977137958026 37.239558845953326" fill="#77ff27" stroke="none" /><path d="M 90.26544431104013 81.39251694778311 l -15.699250700304582 -30.008923948087734 a54.867417809350734,54.867417809350734 0 0,0 0.8406198215830517,-0.4305981224658463 l 15.180370391132765 30.274714595866087" fill="#fffe18" stroke="none" /><path d="M 90.91171255644093 81.06846463323043 l -14.579336726077896 -30.369773245827048 a54.68798281843714,54.68798281843714 0 0,0 0.8521475980126324,-0.4000947233187408 l 14.054410916765654 30.616232951785797" fill="#fffb17" stroke="none" /><path d="M 91.56875222667455 80.76684994638697 l -20.290655098905592 -46.286531329091275 a71.5386353874112,71.5386353874112 0 0,0 1.1320690707025602,-0.4846928958009046 l 19.49090227041272 46.62894375285497" fill="#36ff70" stroke="none" /><path d="M 92.23578459929587 80.48803036053334 l -12.423565572541857 -31.22121447627225 a54.60222038658516,54.60222038658516 0 0,0 0.8762794046989085,-0.3399827952058135 l 11.884303002843273 31.430439975368618" fill="#fff917" stroke="none" /><path d="M 92.57280143429618 80.3572730644239 l -11.863836181089443 -31.376311330847656 a54.54435156120932,54.54435156120932 0 0,0 0.8810670513731783,-0.3245044306514576 l 11.321986803943696 31.575879029305437" fill="#fff817" stroke="none" /><path d="M 93.59665428221793 80.00007090966166 l -10.244126008019698 -31.996053747953738 a54.59597554931439,54.59597554931439 0 0,0 0.8974918738452731,-0.2788550939703053 l 9.691848761463696 32.16764897680657" fill="#fff917" stroke="none" /><path d="M 94.28887869178378 79.79150937346287 l -13.730920711038126 -48.586112517614325 a71.48909301172972,71.48909301172972 0 0,0 1.1870665538415135,-0.3244701308637444 l 12.89255626797289 48.81526918930437" fill="#36ff6f" stroke="none" /><path d="M 94.98787191387505 79.60689891045804 l -8.00801110293042 -32.58260306641399 a54.552261688418966,54.552261688418966 0 0,0 0.9138187373622396,-0.2162713708343729 l 7.445968678605646 32.71562034938923" fill="#fff817" stroke="none" /><path d="M 95.33964822691252 79.52364482259891 l -4.6890237539283515 -20.602332290701337 a42.12919874442425,42.12919874442425 0 0,0 0.7084872886750369,-0.1548478799574309 l 4.333693741099794 20.679993668754637" fill="#ff0200" stroke="none" /></svg>