<?xml version="1.0" encoding="utf-8" ?>
<svg baseProfile="full" height="200mm" version="1.1" viewBox="0,0,200,200" width="200mm" xmlns="http://www.w3.org/2000/svg" xmlns:ev="http://www.w3.org/2001/xml-events" xmlns:xlink="http://www.w3.org/1999/xlink"><defs /><rect fill="#1a1a1a" height="200" width="200" x="0" y="0" /><text alignment-baseline="middle" fill="#e1ed5e" style="dominant-baseline: central; font-size:9.0px; font-family:Arial;" text-anchor="middle" x="100.0" y="100.0">2020</text><line stroke="#e1ed5e" stroke-width="0.3" x1="100.0" x2="100.0" y1="15.0" y2="10.0" /><path d="M 100.0 14.0 a86.0,86.0 0 0,1 42.35913384403234,11.155469271406648" fill="none" id="id13" stroke="none" /><text fill="#e1ed5e" style="font-size:6.75px; font-family:Arial;" text-anchor="middle"><textPath startOffset="22.145653131862478" xlink:href="#id13">January</textPath></text><path d="M 100.72087961077811 79.0123766808444 l 0.9388701517619141 -27.33418007135536 a48.3502994011976,48.3502994011976 0 0,0 0.8292634434070566,0.03561214036088629 l -1.407959355769807 27.314035362568642" fill="#fff316" stroke="none" /><path d="M 101.08105385017728 79.02784411241856 l 2.2948119154960764 -44.518738096692346 a65.57784431137725,65.57784431137725 0 0,0 1.1237408404965323,0.06760145846960033 l -3.058697108125071 44.47278466039805" fill="#31ff3e" stroke="none" /><path d="M 101.80034050326958 79.07731436759882 l 2.700510754904372 -31.38402844860178 a52.5,52.5 0 0,0 0.8972510915374676,0.08497061123704075 l -3.2388614098268524 31.333046081859557" fill="#ceff1d" stroke="none" /><path d="M 102.15924093988457 79.11130261209362 l 3.24532620306004 -31.395587092002987 a52.56287425149701,52.56287425149701 0 0,0 0.8967328929992036,0.10048079106638433 l -3.7837949976600402 31.335250540429634" fill="#cdff1d" stroke="none" /><path d="M 103.94208987418118 79.37332000966035 l 6.196398754326695 -32.422176631521914 a54.00898203592814,54.00898203592814 0 0,0 0.9091602363140958,0.18185750978025148 l -6.752055476171748 32.3110297250788" fill="#b8ff1f" stroke="none" /><path d="M 104.29559338865022 79.4440306129975 l 6.456251141025176 -30.895498899027732 a52.56287425149701,52.56287425149701 0 0,0 0.8816485619952212,0.19215120059943447 l -6.985662119639532 30.78011624029458" fill="#cdff1d" stroke="none" /><path d="M 104.64783097203109 79.52079915486377 l 6.957830796453717 -30.65748629511412 a52.43712574850299,52.43712574850299 0 0,0 0.8761191131165746,0.20676172514684515 l -7.483082063310176 30.53352842632105" fill="#cfff1d" stroke="none" /><path d="M 104.9986988182912 79.60360301121754 l 7.947033151235407 -32.42660718875295 a54.38622754491018,54.38622754491018 0 0,0 0.9048695250300414,0.2300142947978846 l -8.502507969490843 32.2854076621198" fill="#b3ff20" stroke="none" /><path d="M 106.38641147887787 79.99465700312896 l 19.140113444181896 -59.95613275409552 a83.937125748503,83.937125748503 0 0,0 1.3688836683840238,0.449979251282339 l -20.166519850213664 59.61873258141116" fill="#4dd3ff" stroke="none" /><line stroke="#e1ed5e" stroke-width="0.3" x1="143.13028292997686" x2="145.6673583964461" y1="26.7553504044142" y2="22.446841604673864" /><path d="M 143.63769802327073 25.89364864446614 a86.0,86.0 0 0,1 29.32050498858742,28.57503671076993" fill="none" id="id14" stroke="none" /><text fill="#e1ed5e" style="font-size:6.75px; font-family:Arial;" text-anchor="middle"><textPath startOffset="20.669276256404974" xlink:href="#id14">February</textPath></text><path d="M 110.65571695917076 81.90426304109057 l 13.55892128038195 -23.0260125974147 a47.721556886227546,47.721556886227546 0 0,0 0.7023414304578066,0.42173584908154466 l -13.95219546739719 22.789862747797233" fill="#ffea16" stroke="none" /><path d="M 111.27062007382361 82.28071324371311 l 16.939674482213928 -26.6319818911857 a52.56287425149701,52.56287425149701 0 0,0 0.7571916509974308,0.4908024800465391 l -17.394351765468365 26.337265569435264" fill="#cdff1d" stroke="none" /><path d="M 111.5731344415666 82.4767994020092 l 17.359701662349902 -26.28480089698619 a52.5,52.5 0 0,0 0.7477592797574975,0.5031258148572029 l -17.8083572302044 25.982925408071868" fill="#ceff1d" stroke="none" /><path d="M 112.45986205192187 83.09580414077388 l 18.727098054086166 -25.406905153687152 a52.56287425149701,52.56287425149701 0 0,0 0.7217308421275429,0.5416002790637232 l -19.160481885124476 25.081685847359417" fill="#cdff1d" stroke="none" /><path d="M 113.03279911837588 83.53348406188908 l 19.86136153069857 -25.094181474546282 a53.00299401197605,53.00299401197605 0 0,0 0.7085976065584318,0.570796072850769 l -20.289209907612264 24.749537107902103" fill="#c6ff1e" stroke="none" /><path d="M 116.35404254752997 86.82634096563983 l 24.531063821294957 -19.76048855154026 a52.5,52.5 0 0,0 0.5593339233961017,0.7067001402133044 l -24.86666417533262 19.336468467412278" fill="#ceff1d" stroke="none" /><line stroke="#e1ed5e" stroke-width="0.3" x1="172.87174338648825" x2="177.1583165268699" y1="56.24261187166439" y2="53.66864786411523" /><path d="M 173.72905801456457 55.72781907015455 a86.0,86.0 0 0,1 12.242430191666344,42.057860355516425" fill="none" id="id15" stroke="none" /><text fill="#e1ed5e" style="font-size:6.75px; font-family:Arial;" text-anchor="middle"><textPath startOffset="22.145653131862474" xlink:href="#id15">March</textPath></text><path d="M 118.00360718960297 89.18935116829356 l 29.592755530215676 -17.769599426966586 a55.51796407185629,55.51796407185629 0 0,0 0.4836045328006441,0.8212662227448791 l -29.89343377314609 17.25898203592815" fill="#a3ff21" stroke="none" /><path d="M 119.0197475246899 91.09779779509293 l 28.52962128703485 -13.353303307360614 a52.5,52.5 0 0,0 0.37503883786237147,0.8195275444632895 l -28.75464458975227 12.86158678068264" fill="#ceff1d" stroke="none" /><path d="M 119.16976305983485 91.42560881287824 l 28.81203908993142 -12.887258610584203 a52.56287425149701,52.56287425149701 0 0,0 0.36134752884375093,0.8268338612796106 l -29.02902050079214 12.390762679528743" fill="#cdff1d" stroke="none" /><path d="M 119.94978838288452 93.4421083053983 l 30.16300489662531 -9.91517882292487 a52.75086826347305,52.75086826347305 0 0,0 0.2753979254791587,0.8626800791115664 l -30.328767537881728 9.395929710121917" fill="#caff1d" stroke="none" /><path d="M 120.05942366710727 93.78553927170692 l 30.149193655352835 -9.340297262284803 a52.56287425149701,52.56287425149701 0 0,0 0.2596197499310406,0.8641897107729197 l -30.305089725287502 8.82136994792116" fill="#cdff1d" stroke="none" /><path d="M 120.26092885502905 94.47779374421319 l 30.391393282543582 -8.28330938368022 a52.5,52.5 0 0,0 0.2295262979881743,0.8715487390680036 l -30.529109061336488 7.760380140239416" fill="#ceff1d" stroke="none" /><path d="M 120.592083275326 95.88100663000786 l 44.20516080361899 -8.842270198456173 a66.08083832335329,66.08083832335329 0 0,0 0.21294930183069785,1.1142407309879834 l -44.35043639773184 8.082126902434876" fill="#32ff45" stroke="none" /><path d="M 120.65975698304385 96.23510406497455 l 32.96901338910889 -6.008052495115465 a54.51197604790419,54.51197604790419 0 0,0 0.15986333303662528,0.9220492229276831 l -33.06729153963775 5.44121023926719" fill="#b1ff20" stroke="none" /><path d="M 120.7213421655516 96.59031103205396 l 31.082013248327414 -5.1145334519190655 a52.5,52.5 0 0,0 0.138696269654337,0.8905295451713969 l -31.165231010120017 4.580215724816227" fill="#ceff1d" stroke="none" /><path d="M 120.86939407059847 97.66154086499901 l 31.3040911058977 -3.5076887025014756 a52.5,52.5 0 0,0 0.09266901879583483,0.8964886942926715 l -31.3596925171752 2.9697954859258724" fill="#ceff1d" stroke="none" /><path d="M 120.9064616781168 98.02013634271609 l 31.3596925171752 -2.9697954859258724 a52.5,52.5 0 0,0 0.077265943255648,0.897947381560845 l -31.406052083128593 2.4310270569893655" fill="#ceff1d" stroke="none" /><path d="M 120.96210409425399 98.7389718711861 l 32.008003257693225 -1.9255219930990861 a53.06586826347306,53.06586826347306 0 0,0 0.04689610328937924,0.9097718754192795 l -32.03634095043918 1.3757783243030761" fill="#c6ff1e" stroke="none" /><line stroke="#e1ed5e" stroke-width="0.3" x1="184.99686870605535" x2="189.99668451229388" y1="99.2704041080226" y2="99.22748670261217" /><path d="M 185.99683186730306 99.26182062694052 a86.0,86.0 0 0,1 -10.086455211305974,41.156179273409016" fill="none" id="id16" stroke="none" /><text fill="#e1ed5e" style="font-size:6.75px; font-family:Arial;" text-anchor="middle"><textPath startOffset="21.40746469413373" xlink:href="#id16">April</textPath></text><path d="M 120.98066250479742 100.90099992219065 l 50.25308384382616 2.1580836459656143 a71.2994011976048,71.2994011976048 0 0,0 -0.06300969328217543,1.2223712164993636 l -50.20863256108742 -3.0204266558417086" fill="#3aff8f" stroke="none" /><path d="M 120.77682067341334 103.0534771498775 l 24.944626018080093 3.6660010092840496 a46.212574850299404,46.212574850299404 0 0,0 -0.12208593795920171,0.7838793002406702 l -24.878018587982623 -4.09366849145617" fill="#ffd313" stroke="none" /><path d="M 120.7213421655516 103.40968896794604 l 24.878018587982623 4.09366849145617 a46.212574850299404,46.212574850299404 0 0,0 -0.13552427887187957,0.7816680263573887 l -24.80407949161851 -4.520129550734147" fill="#ffd313" stroke="none" /><path d="M 120.592083275326 104.11899336999214 l 30.949777856927106 6.19082237046722 a52.56287425149701,52.56287425149701 0 0,0 -0.18457650823602184,0.8832654093574791 l -30.83894363786672 -6.721204231110108" fill="#cdff1d" stroke="none" /><path d="M 120.16314734710363 105.8691983318838 l 30.305089725287502 8.821369947921156 a52.56287425149701,52.56287425149701 0 0,0 -0.2596197499310347,0.8641897107729197 l -30.14919365535284 -9.3402972622848" fill="#cdff1d" stroke="none" /><path d="M 120.05942366710727 106.21446072829308 l 30.14919365535284 9.3402972622848 a52.56287425149701,52.56287425149701 0 0,0 -0.2744164599108232,0.8596056521976149 l -29.984412479664762 -9.856471948173798" fill="#cdff1d" stroke="none" /><path d="M 119.31412917781788 108.2440532568976 l 29.029020500792143 12.39076267952874 a52.56287425149701,52.56287425149701 0 0,0 -0.3613475288437626,0.8268338612796223 l -28.812039089931417 -12.887258610584206" fill="#cdff1d" stroke="none" /><path d="M 119.16976305983485 108.57439118712176 l 29.845140093156047 13.349351548812324 a53.69461077844311,53.69461077844311 0 0,0 -0.3835726557298866,0.8381754766127416 l -29.611582972571103 -13.859716007639754" fill="#bdff1f" stroke="none" /><path d="M 118.5362547648365 109.86951160357373 l 38.848438129896856 20.684605157190436 a65.0119760479042,65.0119760479042 0 0,0 -0.5329578098734716,0.9805823418780246 l -38.487634970408045 -21.348442332543065" fill="#30ff35" stroke="none" /><line stroke="#e1ed5e" stroke-width="0.3" x1="174.33088141563837" x2="178.70328620479359" y1="141.23008692659167" y2="143.65538615756765" /><path d="M 175.20536237346943 141.71514677278685 a86.0,86.0 0 0,1 -30.301960400862466,31.631185727798858" fill="none" id="id17" stroke="none" /><text fill="#e1ed5e" style="font-size:6.75px; font-family:Arial;" text-anchor="middle"><textPath startOffset="22.145653131862474" xlink:href="#id17">May</textPath></text><path d="M 118.36410011445183 110.18625677009912 l 27.87604418570982 15.462371803713332 a52.877245508982035,52.877245508982035 0 0,0 -0.44710640723658934,0.7899941806785562 l -27.60650441345185 -15.93862275449101" fill="#c8ff1d" stroke="none" /><path d="M 118.18653347947321 110.5 l 27.22534952016948 15.71856287425149 a52.43712574850299,52.43712574850299 0 0,0 -0.4567680411729811,0.7756919929436519 l -26.951507768866733 -16.18360603548869" fill="#cfff1d" stroke="none" /><path d="M 118.00360718960297 110.81064883170644 l 27.059313799942203 16.248340459630647 a52.56287425149701,52.56287425149701 0 0,0 -0.47114365783018475,0.7695777572451207 l -26.776402177656614 -16.710455333000326" fill="#cdff1d" stroke="none" /><path d="M 114.91283532996324 114.78537596483092 l 19.779598955609938 19.610543570120054 a48.85329341317365,48.85329341317365 0 0,0 -0.5955637067635249,0.5904734492584724 l -19.44004332871645 -19.94719702960719" fill="#fffb17" stroke="none" /><path d="M 113.03279911837588 116.46651593811092 l 15.608142656737575 19.720378368995117 a46.1497005988024,46.1497005988024 0 0,0 -0.6254164689752716,0.4863276290728677 l -15.267316243127073 -19.985407049688778" fill="#ffd213" stroke="none" /><path d="M 111.27062007382361 117.71928675628689 l 23.85727063530926 37.50759202603245 a65.45209580838323,65.45209580838323 0 0,0 -0.9532189878140922,0.5948791481675115 l -23.209887518705454 -37.91160697104151" fill="#31ff3c" stroke="none" /><path d="M 110.96478420261333 117.91015095944535 l 14.93705632391935 24.398558941759383 a49.60778443113772,49.60778443113772 0 0,0 -0.7301019613059357,0.4384052502310073 l -14.516021606055977 -24.651378192526316" fill="#f8ff18" stroke="none" /><line stroke="#e1ed5e" stroke-width="0.3" x1="143.1302829299769" x2="145.66735839644613" y1="173.24464959558577" y2="177.55315839532614" /><path d="M 143.63769802327073 174.10635135553383 a86.0,86.0 0 0,1 -40.68552437913181,11.842963189579606" fill="none" id="id18" stroke="none" /><text fill="#e1ed5e" style="font-size:6.75px; font-family:Arial;" text-anchor="middle"><textPath startOffset="21.407464694133747" xlink:href="#id18">June</textPath></text><path d="M 109.06512990194946 118.94263497670748 l 13.59769485292419 28.413952465061225 a52.5,52.5 0 0,0 -0.8162782153212345,0.3820594210736661 l -13.10792792373145 -28.643188117705424" fill="#ceff1d" stroke="none" /><path d="M 108.07796709384702 119.3841803445677 l 4.861291574440875 11.665330087599123 a33.637724550898206,33.637724550898206 0 0,0 -0.5349127642608208,0.21754436446131487 l -4.660324348989613 -11.74706170863973" fill="#ff0000" stroke="none" /><path d="M 107.06938296918513 119.77432235084164 l 10.625240271050693 29.720688084199114 a52.56287425149701,52.56287425149701 0 0,0 -0.8522550136837179,0.2964585340498754 l -10.113479485321953 -29.898705050817583" fill="#cdff1d" stroke="none" /><path d="M 106.38641147887787 120.00534299687104 l 8.489720648568198 26.59392901380461 a48.91616766467066,48.91616766467066 0 0,0 -0.802130501873881,0.24850207989949308 l -8.031949513822692 -26.735747681510745" fill="#fffc17" stroke="none" /><path d="M 104.9986988182912 120.39639698878246 l 6.061296471281248 24.732158025320047 a46.464071856287426,46.464071856287426 0 0,0 -0.7763213724138602,0.1832097300761665 l -5.635842945127509 -24.832563899042437" fill="#ffd714" stroke="none" /><path d="M 103.2317021107853 120.74984581791261 l 4.847553166177957 31.12476872686893 a52.5,52.5 0 0,0 -0.8916872359807863,0.13104731675279396 l -4.312540824589486 -31.203397116920602" fill="#ceff1d" stroke="none" /><path d="M 102.875027216393 120.80226474461374 l 4.32114869050683 31.2656793466949 a52.56287425149701,52.56287425149701 0 0,0 -0.8948758709560233,0.11585959753434143 l -3.7837949976600314 -31.335250540429634" fill="#cdff1d" stroke="none" /><line stroke="#e1ed5e" stroke-width="0.3" x1="101.45913802915013" x2="101.54496967792366" y1="184.9874750549273" y2="189.98673829345242" /><path d="M 101.47630435890484 185.9873277026323 a86.0,86.0 0 0,1 -42.54439059252881,-10.42667462771756" fill="none" id="id19" stroke="none" /><text fill="#e1ed5e" style="font-size:6.75px; font-family:Arial;" text-anchor="middle"><textPath startOffset="22.145653131862474" xlink:href="#id19">July</textPath></text><path d="M 100.36049292484886 120.99690560180557 l 0.5396600671390042 31.432493415876593 a52.43712574850299,52.43712574850299 0 0,0 -0.9001529919878526,0.007726730820834478 l -3.849937542229703e-15 -31.437125748502993" fill="#cfff1d" stroke="none" /><path d="M 98.55909050195518 120.95050786540614 l -2.161364247067231 31.4257617981092 a52.5,52.5 0 0,0 -0.8985775130619097,-0.06955558251236588 l 2.7005107549043768 -31.38402844860178" fill="#ceff1d" stroke="none" /><path d="M 96.76829788921471 120.74984581791261 l -4.847553166177937 31.12476872686893 a52.5,52.5 0 0,0 -0.8893062423673412,-0.14633500376082909 l 5.381136911598341 -31.036967724612435" fill="#ceff1d" stroke="none" /><path d="M 96.41257539226777 120.69131181640829 l -5.370396119359622 30.975017689233965 a52.43712574850299,52.43712574850299 0 0,0 -0.8856012940671207,-0.1613860567103018 l 5.9013321469778 -30.878263458592297" fill="#cfff1d" stroke="none" /><path d="M 93.95794788825049 120.11202640906438 l -8.392120943597947 27.93464123182353 a50.16799401197605,50.16799401197605 0 0,0 -0.8226580318125593,-0.25486156114729547 l 8.87041960828214 -27.786463082869588" fill="#efff19" stroke="none" /><line stroke="#e1ed5e" stroke-width="0.3" x1="58.13341422392154" x2="55.67067388415222" y1="173.97424548756322" y2="178.32567169271397" /><path d="M 57.64086615596768 174.84453072859336 a86.0,86.0 0 0,1 -31.369924170532247,-30.572349798747897" fill="none" id="id20" stroke="none" /><text fill="#e1ed5e" style="font-size:6.75px; font-family:Arial;" text-anchor="middle"><textPath startOffset="22.145653131862474" xlink:href="#id20">August</textPath></text><path d="M 89.34428304082925 118.09573695890944 l -16.206898848080062 27.522857410556863 a52.94011976047904,52.94011976047904 0 0,0 -0.7791455658043301,-0.4678545255950792 l 16.676977170441816 -27.24058888442587" fill="#c7ff1e" stroke="none" /><path d="M 89.03521579738668 117.91015095944536 l -16.48000499913739 26.918849645633436 a52.56287425149701,52.56287425149701 0 0,0 -0.7655053542868272,-0.47773195760618603 l 16.939674482213928 -26.631981891185703" fill="#cdff1d" stroke="none" /><path d="M 87.83215693770417 117.11559508785305 l -18.288195261294927 25.724636928449787 a52.56287425149701,52.56287425149701 0 0,0 -0.7309217824172891,-0.5291310033895729 l 18.72709805408617 -25.40690515368715" fill="#cdff1d" stroke="none" /><path d="M 86.68645165197938 116.24036423190432 l -19.970322522030926 24.360546347856495 a52.5,52.5 0 0,0 -0.6920641645952683,-0.5773445402203246 l 20.38556102078809 -24.0141396237243" fill="#ceff1d" stroke="none" /><path d="M 86.13680546590413 115.77377054828092 l -20.79479180114379 23.660655822421383 a52.5,52.5 0 0,0 -0.6718374329415727,-0.6007611752915443 l 21.197894260908736 -23.300199117246457" fill="#ceff1d" stroke="none" /><path d="M 85.60350026404147 115.28858382429668 l -21.594749603937785 22.932875736445023 a52.5,52.5 0 0,0 -0.650818785336714,-0.6234696742360437 l 21.985240875139816 -22.558793931903395" fill="#ceff1d" stroke="none" /><path d="M 85.34317274990678 115.03919595460226 l -21.985240875139816 22.558793931903395 a52.5,52.5 0 0,0 -0.6400201996750937,-0.6345499744283514 l 22.36925299494487 -22.178063947246386" fill="#ceff1d" stroke="none" /><path d="M 85.08716467003676 114.78537596483092 l -22.36925299494487 22.178063947246386 a52.5,52.5 0 0,0 -0.6290329971229763,-0.6454432698306567 l 22.746672793218657 -21.790797985347993" fill="#ceff1d" stroke="none" /><path d="M 84.1078160697243 113.72728997021213 l -23.838275895413567 20.59093495531819 a52.5,52.5 0 0,0 -0.5832635912322195,-0.6870830438761142 l 24.1882340501529 -20.17868512899252" fill="#ceff1d" stroke="none" /><path d="M 83.20337586046588 112.60449989151573 l -25.24522550313211 18.94448786090088 a52.56287425149701,52.56287425149701 0 0,0 -0.5353853641554425,-0.7263530702132234 l 25.566712886871382 -18.50832848141878" fill="#cdff1d" stroke="none" /><path d="M 82.37810715431573 111.42229804090323 l -21.473384395788912 13.91878833128027 a46.58982035928143,46.58982035928143 0 0,0 -0.42925266618328006,-0.6748564882128865 l 21.70915475359808 -13.548118168388712" fill="#ffd914" stroke="none" /><line stroke="#e1ed5e" stroke-width="0.3" x1="26.387840678322732" x2="22.057713659400548" y1="142.50000000000003" y2="145.00000000000006" /><path d="M 25.521815274538298 143.00000000000003 a86.0,86.0 0 0,1 -11.493303480769221,-40.785679425670985" fill="none" id="id21" stroke="none" /><text fill="#e1ed5e" style="font-size:6.75px; font-family:Arial;" text-anchor="middle"><textPath startOffset="21.40746469413373" xlink:href="#id21">September</textPath></text><path d="M 81.4637452351635 109.86951160357371 l -24.863000403133984 13.238147300601872 a49.16766467065868,49.16766467065868 0 0,0 -0.3902787127592506,-0.7484108918930501 l 25.086587184868183 -12.80939016560432" fill="#feff18" stroke="none" /><path d="M 81.29705330413844 109.54985784667822 l -28.054420043792323 14.324786770017331 a52.5,52.5 0 0,0 -0.4029502169706575,-0.806170359590618 l 28.29619017397472 -13.84108455426296" fill="#ceff1d" stroke="none" /><path d="M 81.1358732173502 109.22738970284198 l -28.29619017397472 13.84108455426296 a52.5,52.5 0 0,0 -0.38905185510022006,-0.8129687448372382 l 28.52962128703485 -13.353303307360617" fill="#ceff1d" stroke="none" /><path d="M 80.68587082218212 108.24405325689762 l -29.029020500792136 12.390762679528754 a52.56287425149701,52.56287425149701 0 0,0 -0.3471005807410123,-0.832915036248769 l 29.237446926069634 -11.890615133838702" fill="#cdff1d" stroke="none" /><path d="M 80.05021161711548 106.5578916946017 l -27.236836834117785 8.953289259695723 a49.67065868263473,49.67065868263473 0 0,0 -0.25931698962864874,-0.8123067765982053 l 27.38651853952369 -8.484413449406125" fill="#f7ff19" stroke="none" /><path d="M 79.64726062577567 105.17358676015961 l -27.421355444314212 6.970401323568329 a49.293413173652695,49.293413173652695 0 0,0 -0.20142808147073613,-0.8218953099019458 l 27.536971052301244 -6.498650189058284" fill="#fcff18" stroke="none" /><path d="M 79.48165901384964 104.47187691870673 l -30.777511479225552 6.707815378060095 a52.5,52.5 0 0,0 -0.18435572293908298,-0.8822088717864772 l 30.888124912989 -6.17849005498821" fill="#ceff1d" stroke="none" /><path d="M 79.17382384314188 102.69636545807758 l -31.176910414458277 4.036475236643088 a52.43712574850299,52.43712574850299 0 0,0 -0.10791538939952831,-0.8936942318739072 l 31.241607890117464 -3.500687327845781" fill="#cfff1d" stroke="none" /><path d="M 79.0935383218832 101.97986365728391 l -27.72922911199324 2.6259868268765674 a48.85329341317365,48.85329341317365 0 0,0 -0.0718989675564533,-0.8355749885901516 l 27.770221702247436 -2.1495907909107537" fill="#fffb17" stroke="none" /><line stroke="#e1ed5e" stroke-width="0.3" x1="15.003131293944662" x2="10.003315487706104" y1="100.72959589197737" y2="100.7725132973878" /><path d="M 14.003168132696942 100.73817937305945 a86.0,86.0 0 0,1 10.791469493833604,-42.45332614584628" fill="none" id="id22" stroke="none" /><text fill="#e1ed5e" style="font-size:6.75px; font-family:Arial;" text-anchor="middle"><textPath startOffset="22.145653131862435" xlink:href="#id22">October</textPath></text><path d="M 79.01933749520258 99.09900007780938 l -27.639196114104394 -1.18694600528106 a48.66467065868264,48.66467065868264 0 0,0 0.043006616049744185,-0.8343168620551645 l 27.61474790859808 1.6612346607129365" fill="#fff817" stroke="none" /><path d="M 79.0935383218832 98.0201363427161 l -31.422286713816273 -2.975723221426708 a52.56287425149701,52.56287425149701 0 0,0 0.09277999965667401,-0.8975623334475598 l 31.366574321677934 3.5146900771571805" fill="#cdff1d" stroke="none" /><path d="M 79.22317932658666 96.9465228501225 l -31.227437060040412 -4.589357871971556 a52.56287425149701,52.56287425149701 0 0,0 0.13886237297128248,-0.8915960476206821 l 31.144053194930862 5.124742101523688" fill="#cdff1d" stroke="none" /><path d="M 79.73907114497095 94.47779374421319 l -30.391393282543582 -8.28330938368022 a52.5,52.5 0 0,0 0.24445376981354489,-0.8674801902424671 l 30.244721020655454 8.803797497825698" fill="#ceff1d" stroke="none" /><path d="M 79.94057633289273 93.78553927170692 l -30.0891355006609 -9.321691092439613 a52.5,52.5 0 0,0 0.27408821055685706,-0.8585774157715208 l 29.924682574326784 9.836837541902526" fill="#ceff1d" stroke="none" /><path d="M 80.5471966667186 92.08871423366112 l -28.59678573844661 -11.630063806204753 a51.87125748502994,51.87125748502994 0 0,0 0.34253346783654254,-0.8219556278771178 l 28.39292642607359 12.119251943523134" fill="#d7ff1c" stroke="none" /><path d="M 81.63589988554816 89.8137432299009 l -47.064879335241855 -26.106095195224064 a74.82035928143713,74.82035928143713 0 0,0 0.6326475916903321,-1.1178276753954037 l 46.60979837853015 26.910179640718574" fill="#3fffbe" stroke="none" /><line stroke="#e1ed5e" stroke-width="0.3" x1="26.387840678322718" x2="22.05771365940052" y1="57.49999999999999" y2="54.99999999999999" /><path d="M 25.521815274538284 56.99999999999999 a86.0,86.0 0 0,1 29.574782752854787,-30.34633250058573" fill="none" id="id23" stroke="none" /><text fill="#e1ed5e" style="font-size:6.75px; font-family:Arial;" text-anchor="middle"><textPath startOffset="21.40746469413373" xlink:href="#id23">November</textPath></text><path d="M 82.98947788004972 87.6856937992154 l -46.14231449303881 -33.40347729913427 a77.96407185628743,77.96407185628743 0 0,0 0.7941122626229484,-1.0773657979239806 l 45.56210021083204 34.19064940632712" fill="#44ffe5" stroke="none" /><path d="M 84.58840730492382 85.73525988315684 l -40.23625398235457 -37.242075993674355 a75.82634730538922,75.82634730538922 0 0,0 0.8923828278863964,-0.9476796386434717 l 39.5910153207319 37.92729709226234" fill="#41ffcb" stroke="none" /><path d="M 86.40962598614128 83.9905735841838 l -36.7428375284863 -43.282970220006064 a77.7754491017964,77.7754491017964 0 0,0 1.0252495468314926,-0.8552996362305452 l 35.9944136474929 43.90733204014849" fill="#43ffe3" stroke="none" /><path d="M 87.54013794807813 83.09580414077388 l -18.801708006492888 -25.50812788338312 a52.68862275449102,52.68862275449102 0 0,0 0.7326703991216016,-0.5303968670340105 l 18.36105659699732 25.827125521790208" fill="#cbff1d" stroke="none" /><path d="M 87.83215693770416 82.88440491214696 l -18.688932607657986 -26.288324191822174 a53.25449101796407,53.25449101796407 0 0,0 0.749632807712038,-0.5233019192007715 l 18.23490470877218 26.605270926828073" fill="#c3ff1e" stroke="none" /><path d="M 88.4268655584334 82.4767994020092 l -34.71940332469979 -52.569601793972396 a84.0,84.0 0 0,0 1.210057470971896,-0.7843446331843746 l 33.811860221470866 53.157860268860674" fill="#4dd2ff" stroke="none" /><line stroke="#e1ed5e" stroke-width="0.3" x1="56.869717070023135" x2="54.33264160355391" y1="26.7553504044142" y2="22.446841604673864" /><path d="M 56.362301976729285 25.89364864446614 a86.0,86.0 0 0,1 42.16139366436587,-11.88097634709845" fill="none" id="id24" stroke="none" /><text fill="#e1ed5e" style="font-size:6.75px; font-family:Arial;" text-anchor="middle"><textPath startOffset="22.145653131862474" xlink:href="#id24">December</textPath></text><path d="M 90.61103034731259 81.2157712731953 l -20.886240874092035 -41.78647288627513 a67.71556886227545,67.71556886227545 0 0,0 1.0442377591160743,-0.5107890154050909 l 20.165842865713905 42.13885565177743" fill="#34ff5d" stroke="none" /><path d="M 92.93061703081487 80.22567764915836 l -10.625240271050696 -29.720688084199114 a52.56287425149701,52.56287425149701 0 0,0 0.8522550136837617,-0.2964585340498871 l 10.11347948532193 29.89870505081759" fill="#cdff1d" stroke="none" /><path d="M 95.35216902796891 79.52079915486377 l -13.92957725450037 -61.37628756281846 a83.937125748503,83.937125748503 0 0,0 1.40789572998047,-0.3068443215314122 l 12.87391910790078 61.60636334248359" fill="#4dd3ff" stroke="none" /><path d="M 97.12497278360702 79.19773525538626 l -4.312540824589475 -31.203397116920602 a52.5,52.5 0 0,0 0.893805445273015,-0.11572100949901326 l 3.7762575574256663 31.27282972262001" fill="#ceff1d" stroke="none" /></svg>